<svg width="100" height="100" viewBox="0 0 100 100" fill="none" xmlns="http://www.w3.org/2000/svg">
<path fill-rule="evenodd" clip-rule="evenodd" d="M37.6267 29.808C35.6631 27.3698 33 26 30.2231 26C27.4462 26 24.783 27.3698 22.8195 29.808C20.8559 32.2461 19.7528 35.553 19.7528 39.0012C19.7528 42.4493 20.8559 45.7562 22.8195 48.1944L29.3223 56.2844C29.437 56.428 29.5735 56.542 29.7239 56.6198C29.8742 56.6976 30.0355 56.7376 30.1984 56.7376C30.3613 56.7376 30.5226 56.6976 30.673 56.6198C30.8233 56.542 30.9598 56.428 31.0745 56.2844L37.6267 48.1178C39.5821 45.6897 40.6806 42.3966 40.6806 38.9629C40.6806 35.5291 39.5821 32.236 37.6267 29.808ZM30.2166 45.4671C33.2217 45.4671 35.6579 42.4854 35.6579 38.8073C35.6579 35.1292 33.2217 32.1475 30.2166 32.1475C27.2115 32.1475 24.7754 35.1292 24.7754 38.8073C24.7754 42.4854 27.2115 45.4671 30.2166 45.4671Z" fill="#37AAD7"/>
<path d="M7 74.3954H18.9354C18.9354 74.3954 25.8023 60.8251 27.1103 58.5361C22.5323 53.4677 20.4068 51.0152 17.6274 45.9468C16.6464 48.7262 7 74.3954 7 74.3954Z" fill="#37AAD7"/>
<path d="M53.5969 74.3954H41.6616C41.6616 74.3954 34.7946 60.8251 33.4867 58.5361C38.0646 53.4677 40.1901 51.0152 42.9695 45.9468C43.9505 48.7262 53.5969 74.3954 53.5969 74.3954Z" fill="#37AAD7"/>
<path fill-rule="evenodd" clip-rule="evenodd" d="M56.7034 74.3954V26H75.5057C83.5171 26 92.5095 30.5011 92.5095 41.0601C92.5095 51.2955 85.9034 53.9306 82.8179 55.1614C82.7203 55.2003 82.6263 55.2378 82.5361 55.2742L92.9999 74.3954H80.0836L70.6007 56.1202H68.1482V74.3954H56.7034ZM67.9847 47.6595V36.3221H75.6691C77.3586 36.5477 80.7376 37.9804 80.7376 41.9062C80.7376 46.8134 77.3041 47.6595 75.6691 47.6595H67.9847Z" fill="#37AAD7"/>
</svg>
