<svg width="296" height="265" viewBox="0 0 296 265" fill="none" xmlns="http://www.w3.org/2000/svg">
<g clip-path="url(#clip0_2665_82677)">
<rect width="296" height="233.021" transform="translate(0 16)" fill="white"/>
<path d="M268.718 16.1523H0.114746V188.17H268.718V16.1523Z" fill="#F0F1F3"/>
<path d="M261.038 37.7276H7.79541V177.994H261.038V37.7276Z" fill="white"/>
<path d="M268.604 16H0V27.4107H268.604V16Z" fill="#37AAD7"/>
<path d="M8.47974 23.9487C9.64781 23.9487 10.5947 23.0018 10.5947 21.8338C10.5947 20.6658 9.64781 19.7189 8.47974 19.7189C7.31166 19.7189 6.36475 20.6658 6.36475 21.8338C6.36475 23.0018 7.31166 23.9487 8.47974 23.9487Z" fill="white"/>
<path d="M16.5081 23.9487C17.6761 23.9487 18.623 23.0018 18.623 21.8338C18.623 20.6658 17.6761 19.7189 16.5081 19.7189C15.34 19.7189 14.3931 20.6658 14.3931 21.8338C14.3931 23.0018 15.34 23.9487 16.5081 23.9487Z" fill="white"/>
<path d="M24.5359 23.9487C25.704 23.9487 26.6509 23.0018 26.6509 21.8338C26.6509 20.6658 25.704 19.7189 24.5359 19.7189C23.3678 19.7189 22.4209 20.6658 22.4209 21.8338C22.4209 23.0018 23.3678 23.9487 24.5359 23.9487Z" fill="white"/>
<path d="M95.877 52.2813H30.8057V163.44H95.877V52.2813Z" fill="#F0F1F3"/>
<path d="M161.336 52.2813H107.11V82.8789H161.336V52.2813Z" fill="#37AAD7"/>
<path d="M161.336 91.3998H107.11V124.321H161.336V91.3998Z" fill="#F0F1F3"/>
<path d="M161.336 132.842H107.11V163.44H161.336V132.842Z" fill="#F0F1F3"/>
<path d="M238.027 52.2813H172.956V100.724H238.027V52.2813Z" fill="#F0F1F3"/>
<path d="M238.027 114.998H172.956V163.44H238.027V114.998Z" fill="#F0F1F3"/>
<path d="M212.959 104.204V93.7747C212.959 90.0684 214.432 86.5139 217.053 83.8931C219.674 81.2723 223.228 79.8 226.935 79.8C230.641 79.8 234.196 81.2723 236.817 83.8931C239.438 86.5139 240.91 90.0684 240.91 93.7747V104.204C240.91 104.701 240.712 105.179 240.36 105.53C240.008 105.882 239.531 106.08 239.033 106.081H214.837C214.339 106.08 213.862 105.882 213.51 105.53C213.158 105.179 212.96 104.701 212.959 104.204Z" fill="#06161C"/>
<path d="M247.6 239.924L242.671 241.288L235.063 222.926L242.338 220.912L247.6 239.924Z" fill="#FFE5D8"/>
<path d="M238.76 240.854L248.266 238.224L249.923 244.209L234.431 248.496C234.213 247.71 234.153 246.889 234.253 246.079C234.352 245.27 234.611 244.488 235.013 243.779C235.415 243.069 235.952 242.446 236.595 241.944C237.238 241.442 237.974 241.072 238.76 240.854Z" fill="#06161C"/>
<path d="M196.21 243.716H191.095L188.662 223.989H196.21L196.21 243.716Z" fill="#FFE5D8"/>
<path d="M187.441 242.254H197.305V248.464H181.231C181.231 247.649 181.392 246.841 181.704 246.088C182.016 245.334 182.473 244.65 183.05 244.073C183.627 243.496 184.311 243.039 185.065 242.727C185.818 242.415 186.626 242.254 187.441 242.254Z" fill="#06161C"/>
<path d="M190.042 133.471C190.407 133.963 190.876 134.37 191.415 134.662C191.955 134.954 192.551 135.124 193.163 135.161C193.776 135.197 194.388 135.099 194.959 134.873C195.529 134.647 196.042 134.299 196.463 133.853L210.059 139.968L208.823 132.321L196.101 127.687C195.305 127.029 194.296 126.686 193.264 126.723C192.232 126.76 191.249 127.174 190.503 127.887C189.756 128.6 189.296 129.562 189.212 130.591C189.127 131.62 189.422 132.645 190.042 133.471Z" fill="#FFE5D8"/>
<path d="M218.291 179.457C214.019 179.457 209.597 178.821 205.88 176.928C203.907 175.944 202.159 174.562 200.744 172.871C199.329 171.179 198.279 169.214 197.658 167.098C195.722 160.966 198.164 154.942 200.525 149.116C201.988 145.506 203.37 142.097 203.729 138.736L203.854 137.543C204.413 132.183 204.895 127.555 207.566 125.819C208.95 124.919 210.811 124.867 213.256 125.661L236.22 133.121L235.375 176.709L235.236 176.756C235.116 176.796 227.021 179.457 218.291 179.457Z" fill="#06161C"/>
<path d="M212.855 112.091C212.855 112.091 224.119 108.754 232.88 110.006C232.88 110.006 227.873 137.538 229.542 146.715C231.211 155.893 200.548 150.261 206.806 141.501L208.892 131.072C208.892 131.072 204.72 126.9 208.475 121.895L212.855 112.091Z" fill="#37AAD7"/>
<path d="M207.315 178.631L193.433 176.028L198.279 138.731C198.605 137.69 206.113 114.059 209.523 112.781C211.999 111.909 214.531 111.206 217.101 110.676L217.595 110.577L214.812 114.752L203.73 141.306L207.315 178.631Z" fill="#06161C"/>
<path d="M200.081 239.145L182.145 236.156L192.211 195.056L207.189 138.849L207.336 139.847C207.348 139.922 208.747 147.264 229.51 144.006L229.692 143.978L229.743 144.156L254.837 232.817L234.399 236.223L215.758 171.536L200.081 239.145Z" fill="#06161C"/>
<path d="M224.942 185.61L224.953 185.295C224.966 184.945 226.2 150.098 225.787 136.084C225.374 122.022 229.927 109.844 229.973 109.723L230.01 109.625L230.11 109.596C236.001 107.914 241.111 112.936 241.162 112.987L241.234 113.058L239.556 126.898L246.738 177.225L224.942 185.61Z" fill="#06161C"/>
<path d="M224.063 105.838C229.722 105.838 234.309 101.251 234.309 95.5923C234.309 89.9337 229.722 85.3465 224.063 85.3465C218.404 85.3465 213.817 89.9337 213.817 95.5923C213.817 101.251 218.404 105.838 224.063 105.838Z" fill="#FFE5D8"/>
<path d="M209.653 94.609C209.657 91.6782 210.822 88.8683 212.895 86.7959C214.967 84.7234 217.777 83.5577 220.708 83.5544H222.794C225.725 83.5577 228.535 84.7234 230.608 86.7959C232.68 88.8683 233.846 91.6782 233.85 94.609V94.8176H229.441L227.938 90.6078L227.637 94.8176H225.359L224.6 92.6935L224.449 94.8176H209.653V94.609Z" fill="#06161C"/>
<path d="M223.055 107.254C222.848 106.973 222.724 106.64 222.698 106.293C222.672 105.946 222.745 105.598 222.908 105.29C225.118 101.086 228.213 93.3176 224.105 88.5268L223.81 88.1826H235.736V106.087L224.902 107.998C224.792 108.018 224.681 108.028 224.57 108.028C224.274 108.028 223.982 107.957 223.719 107.823C223.456 107.688 223.228 107.493 223.055 107.254Z" fill="#06161C"/>
<path d="M175.038 33.3314C166.693 26.2899 156.481 21.8257 145.645 20.482C134.809 19.1383 123.816 20.973 114.003 25.7629C104.191 30.5528 95.9822 38.0913 90.3763 47.4612C84.7704 56.8311 82.0088 67.6283 82.4277 78.539C82.8466 89.4496 86.4278 100.003 92.7357 108.916C99.0435 117.828 107.806 124.715 117.957 128.739C128.108 132.763 139.209 133.749 149.91 131.579C160.612 129.408 170.451 124.174 178.232 116.514L247.324 174.81C248.375 175.699 249.736 176.134 251.108 176.019C252.48 175.904 253.75 175.249 254.639 174.198C255.528 173.147 255.962 171.785 255.848 170.414C255.733 169.042 255.077 167.772 254.026 166.883L254.019 166.877L184.927 108.58C192.953 97.061 196.388 82.9601 194.559 69.0404C192.73 55.1207 185.768 42.3859 175.038 33.3314ZM170.584 102.966C165.202 109.345 158.049 113.985 150.029 116.298C142.01 118.611 133.484 118.495 125.531 115.963C117.578 113.432 110.554 108.599 105.348 102.075C100.141 95.5521 96.9863 87.6315 96.2817 79.3152C95.5771 70.9989 97.3545 62.6604 101.389 55.3542C105.424 48.048 111.535 42.1023 118.949 38.2688C126.362 34.4354 134.747 32.8865 143.041 33.8179C151.335 34.7493 159.167 38.1192 165.546 43.5016C169.782 47.0753 173.272 51.4482 175.817 56.3707C178.363 61.2932 179.914 66.6688 180.382 72.1906C180.849 77.7124 180.225 83.2723 178.544 88.5528C176.863 93.8334 174.158 98.7311 170.584 102.966Z" fill="#175771"/>
<path opacity="0.3" d="M111.117 108.004C103.021 101.173 97.7907 91.5467 96.4641 81.0374C95.1374 70.5282 97.8117 59.9044 103.956 51.2755C103.149 52.088 102.369 52.939 101.616 53.8284C98.0418 58.0637 95.3372 62.9615 93.6562 68.242C91.9752 73.5225 91.3508 79.0824 91.8186 84.6042C92.2864 90.1261 93.8373 95.5017 96.3828 100.424C98.9282 105.347 102.418 109.72 106.654 113.293C110.889 116.867 115.787 119.572 121.068 121.252C126.349 122.933 131.909 123.558 137.431 123.09C142.953 122.622 148.329 121.071 153.252 118.526C158.174 115.981 162.547 112.491 166.121 108.255C166.873 107.365 167.58 106.453 168.244 105.519C160.772 113.027 150.749 117.451 140.166 117.911C129.583 118.371 119.213 114.835 111.117 108.004Z" fill="#0B2C38"/>
<path d="M227.353 151.382C227.948 151.528 228.569 151.541 229.17 151.421C229.772 151.301 230.339 151.051 230.833 150.687C231.328 150.324 231.736 149.857 232.03 149.319C232.324 148.781 232.497 148.185 232.535 147.573L246.9 143.586L241.061 138.495L228.315 143.062C227.283 143.065 226.287 143.446 225.517 144.134C224.747 144.822 224.256 145.769 224.138 146.794C224.019 147.82 224.281 148.854 224.873 149.699C225.466 150.545 226.348 151.144 227.353 151.382Z" fill="#FFE5D8"/>
<path d="M233.323 149.272L232.449 140.968L244.448 134.348L236.625 124.879L237.902 114.241L241.08 112.879L241.179 113.006C242.678 114.933 255.824 131.895 255.824 133.992C255.824 136.146 253.309 142.47 249.869 144.19C246.55 145.85 234.087 149.075 233.558 149.212L233.323 149.272Z" fill="#06161C"/>
<path d="M295.583 249.021H136.639C136.528 249.021 136.422 248.977 136.344 248.899C136.266 248.821 136.222 248.715 136.222 248.604C136.222 248.494 136.266 248.387 136.344 248.309C136.422 248.231 136.528 248.187 136.639 248.187H295.583C295.694 248.187 295.8 248.231 295.878 248.309C295.956 248.387 296 248.494 296 248.604C296 248.715 295.956 248.821 295.878 248.899C295.8 248.977 295.694 249.021 295.583 249.021Z" fill="#F0F1F3"/>
</g>
<defs>
<clipPath id="clip0_2665_82677">
<rect width="296" height="233.021" fill="white" transform="translate(0 16)"/>
</clipPath>
</defs>
</svg>
