<svg width="571" height="509" viewBox="0 0 571 509" fill="none" xmlns="http://www.w3.org/2000/svg">
<g clip-path="url(#clip0_2539_82570)">
<path d="M65.4925 508.891L64.9957 508.707C48.1627 502.354 34.9747 488.914 28.9352 471.957C27.2988 467.245 26.262 462.345 25.8492 457.373L25.8087 456.899L26.2769 456.983C31.8671 457.986 37.7356 458.541 40.3503 458.758L25.6812 449.046L25.7076 448.541C25.936 443.8 29.0247 439.674 33.5082 438.122C38.0344 436.45 43.1223 437.701 46.3583 441.282C47.8167 442.866 49.3585 444.46 50.8493 446.002C55.9728 451.3 61.2708 456.779 64.6207 463.246C69.6589 473.212 69.9324 484.92 65.365 495.11L65.4925 508.891Z" fill="#F0F1F3"/>
<path d="M362.303 499.48L362.297 499.427C361.648 485.022 359.007 470.776 354.447 457.096L354.443 457.074C354.177 455.669 354.254 454.22 354.668 452.852C355.942 448.929 359.89 446.528 363.957 447.203C368.157 447.993 372.501 447.251 376.202 445.111C378.552 443.747 381.404 443.558 383.913 444.601C386.28 445.566 388.05 447.594 388.686 450.071C388.736 450.265 388.779 450.462 388.816 450.662C388.95 465.135 391.607 479.474 396.668 493.034L396.671 493.051C397.2 495.851 396.356 498.735 394.4 500.806C392.671 502.562 390.248 503.453 387.794 503.235C383.389 502.934 378.859 503.828 373.945 505.969C372.228 506.733 370.298 506.869 368.491 506.352C365.297 505.415 362.902 502.756 362.303 499.48Z" fill="black"/>
<path d="M221.496 301.594V490.765H353.946V301.594C353.951 298.801 352.134 296.331 349.467 295.507C348.854 295.304 348.213 295.205 347.568 295.212H227.893C224.367 295.205 221.503 298.059 221.496 301.587V301.594ZM273.186 366.594C273.258 358.78 279.646 352.505 287.455 352.577C295.162 352.648 301.393 358.882 301.464 366.594V388.543C301.427 396.357 295.067 402.661 287.258 402.624C279.501 402.587 273.222 396.304 273.186 388.543V366.594Z" fill="#F0F1F3"/>
<path d="M221.091 484.715V502.957C221.097 504.924 222.683 506.519 224.649 506.536H350.794C352.762 506.526 354.352 504.927 354.352 502.957V484.715H221.091Z" fill="#F0F1F3"/>
<path d="M13.1338 16.5821V361.982C13.141 371.148 20.5648 378.576 29.7246 378.583H541.276C550.435 378.576 557.859 371.148 557.866 361.982V16.5821C557.845 7.42592 550.426 0.011615 541.276 0H29.7246C20.5738 0.0116606 13.1556 7.42594 13.1338 16.5821Z" fill="#F0F1F3"/>
<path d="M537.008 11.9893H33.9923C29.0925 11.9999 25.1259 15.9771 25.1255 20.8798V357.722C25.1339 362.618 29.0988 366.585 33.9923 366.594H537.008C541.902 366.585 545.867 362.618 545.875 357.722V20.8797C545.874 15.9771 541.908 11.9999 537.008 11.9893ZM410.121 251.3C408.617 254.273 405.568 256.143 402.239 256.135L402.186 256.131C397.364 255.459 392.524 255.016 387.666 254.802C388.42 255.342 389.084 255.999 389.632 256.747C391.042 258.769 391.475 261.315 390.813 263.689C389.715 267.967 389.767 272.587 390.974 277.812C391.412 279.641 391.193 281.565 390.355 283.247C388.852 286.219 385.803 288.09 382.473 288.082L382.421 288.078C370.905 286.473 359.246 286.163 347.66 287.152C347.615 287.444 347.557 287.737 347.482 288.029C346.383 292.308 346.435 296.928 347.642 302.153C348.08 303.981 347.861 305.905 347.024 307.588C345.521 310.56 342.471 312.43 339.142 312.422L339.089 312.419C327.262 310.771 315.285 310.489 303.394 311.578C303.304 314.549 303.612 317.519 304.311 320.408C304.749 322.236 304.53 324.16 303.693 325.843C302.189 328.815 299.14 330.686 295.811 330.678L295.758 330.674C281.484 328.684 267.003 328.684 252.73 330.674H252.707C251.278 330.68 249.868 330.339 248.599 329.682C244.977 327.714 243.337 323.391 244.743 319.514C245.174 318.294 245.495 317.037 245.701 315.758C232.619 314.25 219.4 314.406 206.357 316.222H206.334C204.905 316.227 203.496 315.887 202.227 315.23C198.605 313.262 196.965 308.939 198.371 305.062C199.913 301.074 199.976 296.664 198.549 292.634C197.876 290.743 197.876 288.679 198.549 286.789C188.716 286.288 178.859 286.719 169.108 288.078H169.085C167.656 288.084 166.246 287.743 164.977 287.087C161.355 285.118 159.716 280.795 161.121 276.918C162.663 272.93 162.727 268.521 161.299 264.49C160.388 261.929 160.722 259.089 162.204 256.81C163.584 254.659 165.901 253.287 168.45 253.113C168.65 253.1 168.852 253.093 169.055 253.093C174.051 253.966 179.095 254.536 184.16 254.8C180.929 252.675 179.575 248.611 180.886 244.971C182.429 240.983 182.492 236.574 181.064 232.543C180.153 229.982 180.487 227.142 181.969 224.863C182.034 224.765 182.108 224.678 182.176 224.583C178.572 224.832 174.976 225.206 171.388 225.706H171.365C169.936 225.711 168.527 225.371 167.258 224.714C163.635 222.746 161.996 218.423 163.402 214.546C164.944 210.557 165.007 206.148 163.58 202.117C162.668 199.556 163.003 196.716 164.485 194.438C165.865 192.286 168.181 190.915 170.731 190.74C170.931 190.727 171.132 190.72 171.336 190.72C177.343 191.772 183.419 192.384 189.515 192.551C187.96 190.308 187.578 187.454 188.488 184.881C190.031 180.892 190.094 176.483 188.667 172.452C187.755 169.891 188.089 167.051 189.571 164.773C190.951 162.621 193.268 161.25 195.817 161.075C196.018 161.062 196.219 161.055 196.422 161.055C201.506 161.945 206.639 162.52 211.793 162.777C210.686 160.679 210.505 158.214 211.294 155.976C212.837 151.988 212.9 147.579 211.473 143.548C210.561 140.987 210.895 138.147 212.377 135.868C213.757 133.717 216.074 132.345 218.623 132.171C218.824 132.158 219.025 132.151 219.228 132.151C225.21 133.198 231.26 133.81 237.33 133.979C236.503 132.026 236.436 129.834 237.141 127.833C238.683 123.844 238.747 119.435 237.319 115.404C236.408 112.843 236.742 110.003 238.224 107.725C239.604 105.573 241.921 104.202 244.47 104.027C244.67 104.014 244.872 104.007 245.075 104.007C259.321 106.516 273.896 106.518 288.143 104.013H288.161C289.261 104.239 290.395 104.239 291.495 104.013H291.512C305.76 106.518 320.334 106.516 334.581 104.007C334.784 104.007 334.986 104.014 335.186 104.027C337.735 104.202 340.052 105.573 341.432 107.725C342.914 110.003 343.248 112.843 342.337 115.404C340.909 119.435 340.973 123.844 342.515 127.833C343.22 129.834 343.152 132.026 342.326 133.979C348.396 133.81 354.446 133.198 360.428 132.151C360.631 132.151 360.832 132.158 361.033 132.171C363.582 132.345 365.898 133.717 367.278 135.868C368.76 138.147 369.095 140.987 368.183 143.548C366.756 147.579 366.819 151.988 368.362 155.976C369.151 158.214 368.97 160.679 367.863 162.777C373.017 162.52 378.15 161.945 383.234 161.055C383.437 161.055 383.638 161.062 383.839 161.075C386.388 161.25 388.704 162.621 390.084 164.773C391.566 167.051 391.901 169.891 390.989 172.452C389.562 176.483 389.625 180.892 391.168 184.881C392.081 187.46 391.695 190.323 390.13 192.567C390.809 193.08 391.41 193.689 391.913 194.375C393.323 196.396 393.756 198.942 393.094 201.316C391.995 205.595 392.047 210.215 393.254 215.44C393.692 217.268 393.473 219.192 392.636 220.875C392.33 221.474 391.957 222.036 391.524 222.552C395.083 222.239 398.632 221.772 402.173 221.151H402.191C405.039 221.141 407.719 222.498 409.397 224.801C410.807 226.822 411.241 229.368 410.579 231.742C409.48 236.02 409.532 240.64 410.739 245.866C411.177 247.694 410.958 249.618 410.121 251.3Z" fill="white"/>
<path d="M520.693 58.3906H50.0229C48.9891 58.3678 48.1696 57.5109 48.1924 56.4766C48.2144 55.4743 49.0212 54.6671 50.0229 54.645H520.693C521.726 54.6678 522.546 55.5248 522.523 56.5591C522.501 57.5613 521.694 58.3686 520.693 58.3906Z" fill="#F0F1F3"/>
<path d="M291.044 321.705L290.991 321.702C276.717 319.712 262.237 319.712 247.963 321.702H247.94C246.511 321.707 245.101 321.367 243.832 320.71C240.21 318.742 238.571 314.419 239.976 310.542C241.518 306.553 241.582 302.144 240.154 298.113C239.243 295.552 239.577 292.712 241.059 290.434C242.439 288.282 244.756 286.91 247.305 286.736C247.505 286.723 247.707 286.716 247.91 286.716C262.157 289.225 276.731 289.227 290.979 286.721H290.996C293.844 286.711 296.524 288.069 298.203 290.371C299.613 292.392 300.046 294.938 299.384 297.312C298.285 301.591 298.337 306.211 299.544 311.436C299.982 313.264 299.763 315.188 298.926 316.871C297.422 319.843 294.373 321.713 291.044 321.705Z" fill="black"/>
<path d="M334.94 247.127L323.457 237.619C314.845 242.135 301.742 260.165 301.742 260.165L271.514 281.919C267.884 282.092 265.081 285.176 265.254 288.809C265.427 292.441 268.51 295.245 272.14 295.073C274.496 294.96 276.611 293.595 277.685 291.494L318.757 269.778L334.94 247.127Z" fill="#FFE5D8"/>
<path d="M354.314 210.939C360.942 216.555 361.765 226.484 356.151 233.115C355.522 233.859 354.826 234.542 354.071 235.156L346.768 241.096C346.768 241.096 328.553 267.333 319.072 270.377L294.731 283.1L283.756 272.09L305.816 254.101C305.816 254.101 315.962 244.499 316.978 237.469C317.6 233.164 324.882 221.438 332.181 212.74C337.782 206.128 347.681 205.312 354.289 210.917L354.314 210.939Z" fill="#37AAD7"/>
<path d="M330.715 495.688L320.34 495.687L315.405 455.647L330.717 455.648L330.715 495.688Z" fill="#FFE5D8"/>
<path d="M331.08 506.517L299.177 506.516V506.112C299.177 499.25 304.737 493.688 311.594 493.687L317.423 489.264L328.295 493.688L331.08 493.688L331.08 506.517Z" fill="#06161C"/>
<path d="M409.763 441.051L404.85 450.194L367.268 435.583L374.519 422.089L409.763 441.051Z" fill="#FFE5D8"/>
<path d="M419.469 445.857L404.361 473.972L404.005 473.781C397.965 470.531 395.701 462.998 398.948 456.954L398.949 456.953L397.814 449.723L406.858 442.236L408.176 439.781L419.469 445.857Z" fill="#06161C"/>
<path d="M311.1 312.327L301.943 385.622L306.522 410.195L388.931 446.319L393.509 431.431C372.444 418.534 349.926 399.015 335.738 397.58C335.738 397.58 334.561 384.573 344.725 376.545C346.776 374.926 346.328 372.735 347.157 370.749C347.727 369.383 349.996 367.96 350.577 366.559C351.33 364.743 350.398 362.939 351.155 361.094C351.581 360.056 353.195 359.991 353.618 358.953C354.34 357.181 353.867 354.439 354.57 352.689C356.073 348.95 357.518 345.293 358.837 341.865C362.942 331.195 365.832 322.742 365.467 320.916C364.322 315.19 311.1 312.327 311.1 312.327Z" fill="#06161C"/>
<path d="M309.523 385.41L304.732 416.363L316.823 479.531H332.847C338.604 458.306 338.9 430.41 333.419 406.808L309.523 385.41Z" fill="#06161C"/>
<path d="M319.818 222.775L327.204 209.896L335.136 203.53L350.015 201.239L354.149 204.42C369.026 227.171 374.574 254.781 369.64 281.517L368.479 287.81L367.742 291.805L368.061 296.58L365.578 303.532L365.92 308.622L366.102 311.341L366.285 314.069L366.541 317.878C366.998 320.052 364.695 319.765 365.021 321.681C365.593 325.046 368.159 330.032 364.26 330.048L323.97 321.681C313.734 321.724 304.205 309.511 314.087 299.623L319.818 222.775Z" fill="#37AAD7"/>
<path d="M338.677 197.651C349.483 197.651 358.242 188.886 358.242 178.075C358.242 167.263 349.483 158.499 338.677 158.499C327.872 158.499 319.112 167.263 319.112 178.075C319.112 188.886 327.872 197.651 338.677 197.651Z" fill="#FFE5D8"/>
<path d="M339.009 197.095C341.871 197.14 344.733 196.94 347.561 196.497C350.365 195.927 356.638 191.328 358.386 188.56C359.685 186.504 360.516 183.293 360.984 180.961C362.259 174.722 360.831 168.234 357.053 163.109C356.335 162.049 355.344 161.203 354.185 160.66C354.083 160.62 353.977 160.584 353.87 160.554C352.181 160.109 350.663 159.169 349.512 157.855C349.289 157.589 349.047 157.34 348.788 157.109C347.486 156.01 345.943 155.235 344.285 154.847C341.609 154.13 337.736 154.842 332.773 156.964C330.28 158.03 327.553 157.644 325.456 157.189C325.216 157.143 324.97 157.227 324.81 157.41C323.917 158.249 322.741 158.718 321.517 158.724C320.767 158.757 319.98 159.795 319.03 161.15C318.814 161.457 318.562 161.816 318.381 162.034L318.356 161.615L317.932 162.083C315.75 164.489 315.931 168.209 318.336 170.392C318.982 170.979 319.751 171.414 320.587 171.667C321.341 171.868 322.113 171.991 322.893 172.035C323.365 172.077 323.853 172.121 324.321 172.202C327.375 172.828 329.876 175.014 330.907 177.958C331.34 179.164 332.667 179.791 333.872 179.358C334.061 179.29 334.241 179.198 334.406 179.084C335.396 178.313 336.699 178.076 337.896 178.448C338.406 178.732 338.803 179.182 339.02 179.723C339.284 180.327 339.722 180.838 340.277 181.191C342.177 182.171 342.308 186.514 341.626 190.133C340.968 193.622 339.668 196.146 338.464 196.271C337.537 196.367 337.431 196.433 337.364 196.597L337.304 196.744L337.408 196.881C337.92 197.067 338.466 197.14 339.009 197.095Z" fill="#06161C"/>
<path d="M299.406 185.55L299.353 185.547C285.08 183.557 270.599 183.557 256.325 185.547H256.302C254.873 185.552 253.464 185.212 252.194 184.555C248.572 182.587 246.933 178.264 248.338 174.387C249.881 170.398 249.944 165.989 248.517 161.958C247.605 159.397 247.94 156.557 249.422 154.279C250.802 152.127 253.118 150.756 255.667 150.581C255.868 150.568 256.069 150.561 256.272 150.561C270.519 153.07 285.094 153.072 299.341 150.567H299.359C302.207 150.557 304.887 151.914 306.565 154.216C307.975 156.237 308.408 158.783 307.746 161.157C306.647 165.436 306.699 170.056 307.906 175.281C308.344 177.109 308.125 179.033 307.288 180.716C305.785 183.688 302.735 185.558 299.406 185.55Z" fill="black"/>
<path d="M317.702 231.658L325.798 219.135C320.309 211.106 300.881 200.192 300.881 200.192L275.757 172.695C275.161 169.108 271.771 166.683 268.186 167.28C264.601 167.876 262.178 171.267 262.774 174.855C263.16 177.183 264.763 179.125 266.974 179.947L293.328 218.223L317.702 231.658Z" fill="#FFE5D8"/>
<path d="M355.885 246.681C351.085 253.923 341.326 255.901 334.088 251.098C333.277 250.56 332.517 249.948 331.819 249.269L325.07 242.706C325.07 242.706 296.78 227.926 292.65 218.86L274.113 192.552L286.542 181.333L308.146 200.983C308.146 200.983 318.093 212.491 325.189 212.68C329.534 212.795 342.025 218.66 351.51 224.897C358.728 229.691 360.695 239.431 355.904 246.653L355.885 246.681Z" fill="#37AAD7"/>
<path d="M167.425 506.403L167.372 506.399C153.098 504.409 138.617 504.409 124.344 506.399H124.321C122.891 506.405 121.482 506.065 120.213 505.408C116.591 503.439 114.951 499.116 116.357 495.239C117.899 491.251 117.962 486.842 116.535 482.811C115.623 480.25 115.958 477.41 117.44 475.131C118.82 472.98 121.136 471.608 123.686 471.434C123.886 471.421 124.087 471.414 124.291 471.414C138.537 473.923 153.112 473.924 167.359 471.419H167.377C170.225 471.409 172.905 472.766 174.584 475.069C175.993 477.09 176.427 479.636 175.765 482.01C174.666 486.288 174.718 490.908 175.925 496.134C176.363 497.962 176.144 499.886 175.307 501.568C173.803 504.541 170.754 506.411 167.425 506.403Z" fill="black"/>
<path d="M179.588 474.456L179.536 474.453C165.262 472.463 150.781 472.463 136.507 474.453H136.484C135.055 474.458 133.646 474.118 132.376 473.461C128.754 471.493 127.115 467.17 128.521 463.293C130.063 459.304 130.126 454.895 128.699 450.864C127.787 448.303 128.122 445.463 129.604 443.185C130.984 441.033 133.3 439.661 135.849 439.487C136.05 439.474 136.251 439.467 136.454 439.467C150.701 441.976 165.276 441.978 179.523 439.472H179.541C182.389 439.462 185.069 440.82 186.747 443.122C188.157 445.143 188.59 447.689 187.928 450.063C186.829 454.342 186.881 458.962 188.089 464.187C188.526 466.015 188.308 467.939 187.47 469.622C185.967 472.594 182.917 474.464 179.588 474.456Z" fill="black"/>
<path d="M73.1502 483.165L73.1828 483.123C82.828 472.409 90.9419 460.408 97.2926 447.463L97.3055 447.444C98.1017 446.257 99.173 445.28 100.428 444.596C104.087 442.697 108.584 443.76 111.006 447.098C113.443 450.611 117.058 453.133 121.194 454.209C123.825 454.889 125.988 456.757 127.044 459.262C128.052 461.612 127.889 464.3 126.605 466.51C126.504 466.684 126.397 466.854 126.283 467.023C116.224 477.424 108.055 489.502 102.146 502.713L102.136 502.728C100.549 505.094 97.9237 506.554 95.0775 506.655C92.6144 506.691 90.2641 505.624 88.6698 503.745C85.7436 500.437 81.8901 497.891 76.8883 495.964C75.1297 495.302 73.6597 494.043 72.7359 492.406C71.118 489.495 71.2783 485.92 73.1502 483.165Z" fill="black"/>
<path d="M570.1 507.563L0.900438 507.797C0.400539 507.794 -0.00260243 507.387 1.2651e-05 506.887C0.00259733 506.39 0.404226 505.988 0.900438 505.986L570.1 505.752C570.599 505.755 571.003 506.162 571 506.662C570.997 507.159 570.596 507.561 570.1 507.563Z" fill="#9B9B9B"/>
<path d="M121.823 41.0046C125.374 41.0046 128.252 38.0605 128.252 34.4288C128.252 30.7971 125.374 27.853 121.823 27.853C118.273 27.853 115.395 30.7971 115.395 34.4288C115.395 38.0605 118.273 41.0046 121.823 41.0046Z" fill="#37AAD7"/>
<path d="M144.032 41.0046C147.582 41.0046 150.46 38.0605 150.46 34.4288C150.46 30.7971 147.582 27.853 144.032 27.853C140.481 27.853 137.603 30.7971 137.603 34.4288C137.603 38.0605 140.481 41.0046 144.032 41.0046Z" fill="#37AAD7"/>
<path d="M166.24 41.0046C169.79 41.0046 172.668 38.0605 172.668 34.4288C172.668 30.7971 169.79 27.853 166.24 27.853C162.689 27.853 159.811 30.7971 159.811 34.4288C159.811 38.0605 162.689 41.0046 166.24 41.0046Z" fill="#37AAD7"/>
<path d="M191.563 39.6261C191.365 39.6261 191.168 39.5496 191.019 39.3973L186.682 34.9605C186.393 34.6649 186.393 34.1924 186.682 33.8968L191.019 29.4603C191.314 29.1603 191.796 29.1554 192.094 29.4485C192.395 29.7422 192.4 30.224 192.106 30.5241L188.289 34.4286L192.106 38.3336C192.4 38.6337 192.395 39.1154 192.094 39.4092C191.947 39.5541 191.755 39.6261 191.563 39.6261Z" fill="#37AAD7"/>
<path d="M198.852 39.6262C198.66 39.6262 198.468 39.5541 198.32 39.4093C198.02 39.1155 198.015 38.6342 198.309 38.3337L202.126 34.4287L198.309 30.5241C198.015 30.224 198.02 29.7423 198.32 29.4485C198.62 29.1544 199.102 29.16 199.395 29.4604L203.733 33.8969C204.022 34.1925 204.022 34.6649 203.733 34.9606L199.395 39.3974C199.247 39.5497 199.05 39.6262 198.852 39.6262Z" fill="#37AAD7"/>
<path d="M425.779 28.6143H417.714C416.794 28.6143 416.049 29.3597 416.049 30.2801V38.3581C416.049 39.2785 416.794 40.0239 417.714 40.0239H425.779C426.699 40.0239 427.452 39.2785 427.452 38.3581V30.2801C427.452 29.3597 426.699 28.6143 425.779 28.6143Z" fill="#37AAD7"/>
<path d="M406.014 28.6143H397.948C397.028 28.6143 396.283 29.3597 396.283 30.2801V38.3581C396.283 39.2785 397.028 40.0239 397.948 40.0239H406.014C406.934 40.0239 407.686 39.2785 407.686 38.3581V30.2801C407.686 29.3597 406.934 28.6143 406.014 28.6143Z" fill="#37AAD7"/>
<path d="M444.404 28.9946H436.339C435.419 28.9946 434.674 29.74 434.674 30.6604V38.7384C434.674 39.6588 435.419 40.4042 436.339 40.4042H444.404C445.324 40.4042 446.077 39.6588 446.077 38.7384V30.6604C446.077 29.74 445.324 28.9946 444.404 28.9946Z" fill="#37AAD7"/>
<path d="M322.831 32.0679H258.359C257.234 32.0679 256.329 32.9806 256.329 34.0988C256.329 35.217 257.234 36.1297 258.359 36.1297H322.831C323.949 36.1297 324.861 35.2169 324.861 34.0988C324.861 32.9807 323.949 32.0679 322.831 32.0679Z" fill="#37AAD7"/>
</g>
<defs>
<clipPath id="clip0_2539_82570">
<rect width="571" height="508.891" fill="white"/>
</clipPath>
</defs>
</svg>
