<svg width="180" height="180" viewBox="0 0 180 180" fill="none" xmlns="http://www.w3.org/2000/svg">
<g clip-path="url(#clip0_2322_80415)">
<rect width="180" height="180" rx="90" fill="white"/>
<path fill-rule="evenodd" clip-rule="evenodd" d="M146.683 179.459C171.987 161.577 188.509 132.095 188.509 98.7546C188.509 44.2139 144.295 0 89.7546 0C35.2139 0 -9 44.2139 -9 98.7546C-9 132.434 7.85956 162.176 33.5993 180V171.755H146.683V179.459ZM59.1594 26.7218H119.38V35.0481H111.441V91.2027H130.998C134.871 91.2027 146.683 97.5927 146.683 102.046C146.683 103.254 146.711 104.926 146.742 106.792L146.742 106.793L146.742 106.794C146.817 111.266 146.911 116.856 146.683 119.861H33.5993V102.046C33.5993 97.5927 44.443 91.2027 48.5094 91.2027H68.8412V35.0481H59.1594V26.7218ZM33.5993 125.864H146.683V164.01H33.5993V125.864ZM100.984 35.048H78.7159V91.2026H100.984V35.048Z" fill="#466591"/>
</g>
<defs>
<clipPath id="clip0_2322_80415">
<rect width="180" height="180" rx="90" fill="white"/>
</clipPath>
</defs>
</svg>
