<svg width="180" height="180" viewBox="0 0 180 180" fill="none" xmlns="http://www.w3.org/2000/svg">
<rect width="180" height="180" rx="90" fill="white"/>
<path d="M79.6305 33C50.0305 33 38.7956 72.6667 37.6289 92.5C37.1913 97.5 32.1305 133.5 33.1305 139C34.1305 144.5 39.6289 147.5 44.1289 147.5C48.6289 147.5 54.1213 146.35 56.1289 143C57.6273 140.5 57.6305 139 57.6305 130C57.6305 121 61.6289 100 62.6289 92.5C63.6289 85 74.1305 57.5 77.6305 57.5C81.1305 57.5 78.1305 82 79.6305 92.5C81.1305 103 102.339 102 103.131 92.5C104.047 81.5 114.261 54 118.631 61.5C123 69 118.631 137.5 118.631 137.5C120.005 144.364 127.131 146.5 131.131 146.5C135.131 146.5 141.488 143 142.631 139C143.631 135.5 149.131 78 146.131 62.5C143.131 47 130.131 33 118.631 33C111 33 107.5 35.5 98.6305 43C93 34.5 85 33 79.6305 33Z" fill="#FF9A8C"/>
</svg>
