<svg width="180" height="180" viewBox="0 0 180 180" fill="none" xmlns="http://www.w3.org/2000/svg">
<rect width="180" height="180" rx="90" fill="white"/>
<path d="M162.389 101.178H142.47C149.055 101.924 163.037 103.416 166.275 103.416C166.275 103.416 166.275 108.211 161.255 108.371C156.712 108.515 138.375 105.387 134.331 104.199C137.167 105.605 147.107 110.608 158.34 110.608C158.34 110.608 153.806 114.764 149.271 114.284C145.554 113.891 136.143 111.136 130.67 108.834L145.223 115.882C145.223 115.882 142.146 118.6 138.583 117.641C137.093 117.867 128.948 113.608 124.317 111.101C127.211 112.842 131.188 115.661 132.429 118.6C125.466 120.997 113.32 108.69 113.32 108.69C113.32 108.69 118.664 115.083 121.093 118.6C116.721 120.358 107.49 108.69 107.49 108.69C107.49 108.69 109.109 112.526 111.215 117.321C108.462 119.878 102.632 109.33 102.632 109.33C102.632 109.33 102.47 113.165 102.955 115.882C100.688 117.321 98.0972 107.412 98.0972 107.412C98.0972 107.412 97.1255 110.608 96.8016 113.165C96.4777 115.723 94.2105 106.772 94.2105 106.772C94.2105 106.772 92.5911 109.649 91.6194 111.088C90.6478 112.526 90.3239 106.772 90.3239 106.772C90.3239 106.772 89.1903 113.165 88.5425 111.088C87.8947 109.01 86.5992 106.772 86.5992 106.772C86.5992 106.772 83.6842 115.882 83.0364 113.165C82.3887 110.448 81.9028 107.412 81.9028 107.412C81.9028 107.412 80.6073 114.764 76.8826 115.882C76.5587 114.124 77.6923 107.412 77.6923 107.412C77.6923 107.412 72.9959 118.28 68.9474 117.321C68.9474 114.923 72.1862 108.69 72.1862 108.69C72.1862 108.69 62.6316 119.878 60.0405 118.28C61.8219 115.882 67.166 108.85 67.166 108.85C67.166 108.85 51.9433 121.476 48.2186 118.6C48.2186 117.756 53.3636 113.713 56.8653 111.059C53.0898 113.71 46.7338 117.641 42.2267 117.641C35.4251 117.641 35.4251 115.563 35.4251 115.563L54.8583 107.412C54.8583 107.412 38.1781 113.965 30.2429 113.965C22.3077 113.965 22.3077 111.727 22.3077 110.608C30.7287 110.608 48.7045 103.895 48.7045 103.895C48.7045 103.895 28.2996 108.69 18.7449 108.051C13.5628 108.051 13.5628 105.654 13.5628 103.416C20.6883 103.736 42.2267 101.178 42.2267 101.178H15.9919C10 101.178 10 93.3468 10 93.3468H61.336C61.9298 96.3302 64.2834 102.297 68.9474 102.297H109.109C112.132 102.191 118.178 100.251 118.178 93.3468C120.899 93.3468 153.968 93.5599 170 93.6665C170 93.6665 170 101.178 162.389 101.178Z" fill="black"/>
<path fill-rule="evenodd" clip-rule="evenodd" d="M65.8706 51V54.7247H70.2431V98.1255H73.8058V54.7247H78.0164V51H65.8706ZM80.9313 98.1255V51H84.0083V93.753C84.0083 93.753 89.6763 91.8097 89.6763 90.3522V51H92.5913V93.753C92.5913 93.753 98.0973 91.4858 98.0973 90.3522V51H101.336V90.3522C101.336 94.4008 95.6682 98.1255 92.4293 98.1255H89.3524V95.2105C89.3524 95.2105 85.7896 98.1255 84.0083 98.1255H80.9313ZM103.603 54.7247C103.603 52.4575 106.518 51 106.518 51H111.863C111.863 51 115.101 51.8097 115.101 54.7247V93.753C115.101 96.9919 112.186 98.1255 112.186 98.1255H106.518C106.518 98.1255 103.603 97.3158 103.603 93.753V54.7247ZM106.518 54.7247C106.518 54.0769 112.024 54.0769 112.024 54.7247C112.024 55.0486 111.984 64.6843 111.943 74.32C111.903 83.9556 111.863 93.5911 111.863 93.915C111.863 94.5628 106.518 94.5628 106.518 93.915V54.7247Z" fill="black"/>
<path fill-rule="evenodd" clip-rule="evenodd" d="M26.4956 57.8017V60.4896H29.651V91.8098H32.2221V60.4896H35.2606V57.8017H26.4956ZM37.3642 91.8098V57.8017H39.5846V88.6544C39.5846 88.6544 43.675 87.252 43.675 86.2002V57.8017H45.7785V88.6544C45.7785 88.6544 49.752 87.0183 49.752 86.2002V57.8017H52.0893V86.2002C52.0893 89.1219 47.999 91.8098 45.6617 91.8098H43.4412V89.7062C43.4412 89.7062 40.8702 91.8098 39.5846 91.8098H37.3642ZM53.7255 60.4896C53.7255 58.8535 55.829 57.8017 55.829 57.8017H59.6856C59.6856 57.8017 62.023 58.386 62.023 60.4896V88.6544C62.023 90.9917 59.9194 91.8098 59.9194 91.8098H55.829C55.829 91.8098 53.7255 91.2255 53.7255 88.6544V60.4896ZM55.8295 60.4896C55.8295 60.0222 59.8029 60.0222 59.8029 60.4896C59.8029 60.7234 59.7737 67.677 59.7445 74.6306C59.7153 81.5841 59.6861 88.5376 59.6861 88.7713C59.6861 89.2388 55.8295 89.2388 55.8295 88.7713V60.4896Z" fill="black"/>
<path fill-rule="evenodd" clip-rule="evenodd" d="M118.988 57.8017V60.4896H122.143V91.8098H124.714V60.4896H127.753V57.8017H118.988ZM129.856 91.8098V57.8017H132.077V88.6544C132.077 88.6544 136.167 87.252 136.167 86.2002V57.8017H138.271V88.6544C138.271 88.6544 142.244 87.0183 142.244 86.2002V57.8017H144.582V86.2002C144.582 89.1219 140.491 91.8098 138.154 91.8098H135.934V89.7062C135.934 89.7062 133.362 91.8098 132.077 91.8098H129.856ZM146.218 60.4896C146.218 58.8535 148.321 57.8017 148.321 57.8017H152.178C152.178 57.8017 154.515 58.386 154.515 60.4896V88.6544C154.515 90.9917 152.412 91.8098 152.412 91.8098H148.321C148.321 91.8098 146.218 91.2255 146.218 88.6544V60.4896ZM148.322 60.4896C148.322 60.0222 152.295 60.0222 152.295 60.4896C152.295 60.7234 152.266 67.677 152.237 74.6306C152.208 81.5841 152.178 88.5376 152.178 88.7713C152.178 89.2388 148.322 89.2388 148.322 88.7713V60.4896Z" fill="black"/>
<path d="M61.5545 121.12C61.0843 121.278 60.4574 122.703 60.3006 123.178C60.1439 123.653 61.0843 123.811 61.3978 123.495C61.7113 123.178 61.868 122.07 62.4949 122.07C63.1219 122.07 62.9652 123.178 62.6517 123.811C62.3382 124.286 60.6142 126.186 60.3006 126.502C59.9233 126.502 59.9874 128.244 60.3006 128.244H64.219C64.5322 128.244 64.5322 126.502 64.219 126.502H62.0247C62.0247 126.502 64.5326 124.444 64.5326 123.653C64.6894 123.178 64.6894 122.228 64.5326 121.753C64.3759 121.278 64.2189 121.278 63.5921 121.12C62.9653 120.962 62.0247 120.962 61.5545 121.12Z" fill="black"/>
<path d="M89.8673 121.12C89.397 121.278 88.7701 122.703 88.6134 123.178C88.4566 123.653 89.397 123.811 89.7105 123.495C90.024 123.178 90.1807 122.07 90.8077 122.07C91.4346 122.07 91.2779 123.178 90.9644 123.811C90.6509 124.286 88.927 126.186 88.6134 126.502C88.2361 126.502 88.3002 128.244 88.6134 128.244H92.5318C92.845 128.244 92.845 126.502 92.5318 126.502H90.3375C90.3375 126.502 92.8454 124.444 92.8454 123.653C93.0021 123.178 93.0021 122.228 92.8454 121.753C92.6886 121.278 92.5317 121.278 91.9048 121.12C91.278 120.962 90.3375 120.962 89.8673 121.12Z" fill="black"/>
<path d="M118.18 121.12C117.71 121.278 117.083 122.703 116.926 123.178C116.769 123.653 117.71 123.811 118.023 123.495C118.337 123.178 118.493 122.07 119.12 122.07C119.747 122.07 119.591 123.178 119.277 123.811C118.964 124.286 117.24 126.186 116.926 126.502C116.549 126.502 116.613 128.244 116.926 128.244H120.845C121.158 128.244 121.158 126.502 120.845 126.502H118.65C118.65 126.502 121.158 124.444 121.158 123.653C121.315 123.178 121.315 122.228 121.158 121.753C121.001 121.278 120.844 121.278 120.218 121.12C119.591 120.962 118.65 120.962 118.18 121.12Z" fill="black"/>
</svg>
