<svg width="180" height="180" viewBox="0 0 180 180" fill="none" xmlns="http://www.w3.org/2000/svg">
<rect width="180" height="180" rx="90" fill="white"/>
<path fill-rule="evenodd" clip-rule="evenodd" d="M113.769 93.2308C127.22 93.2308 140.538 101.624 140.538 122.41C140.538 143.197 122.472 149.772 113.769 150C104.011 149.772 84.6923 143.197 84.6923 122.41C84.6923 101.624 100.319 93.2308 113.769 93.2308ZM113.278 103.519C120.871 103.519 128.017 108.7 128.017 122.278C128.017 135.856 118.191 139.548 113.278 139.697C107.769 139.548 96.7518 135.856 96.7518 122.278C96.7518 108.7 105.685 103.519 113.278 103.519Z" fill="black"/>
<path fill-rule="evenodd" clip-rule="evenodd" d="M36.6923 149.077V94.6154H63C67.1538 94.6154 78.6923 101.077 78.6923 112.154C78.6923 123.231 71.923 127.846 68.5384 128.769L80.5384 149.077H68.5384L57.4615 131.077H47.3076V149.077H36.6923ZM47.7692 120.462V103.846H63C64.8461 104.615 68.5384 107.354 68.5384 112.154C68.5384 116.954 64.8461 119.692 63 120.462H47.7692Z" fill="black"/>
<path fill-rule="evenodd" clip-rule="evenodd" d="M33 84.4615V30H44.0769L60.2308 60.9231L76.3846 30H88.3846V84.4615H78.2308V49.8462L64.3846 75.6923H57.9231L44.0769 49.8462V84.4615H33ZM95.3077 84.4615L115.154 30H125.769L146.538 84.4615H135L129.923 71.0769H111.462L106.846 84.4615H95.3077ZM113.308 62.7692L120.231 43.8462L128.077 62.7692H113.308Z" fill="black"/>
</svg>
