<svg width="180" height="180" viewBox="0 0 180 180" fill="none" xmlns="http://www.w3.org/2000/svg">
<rect width="180" height="180" rx="90" fill="white"/>
<path d="M91.1557 150.974C95.193 153.426 99.701 155.162 104.376 156.07C109.094 156.978 114.344 156.948 118.298 154.314C122.346 151.619 124.186 146.856 126.927 142.92C131.738 135.987 139.415 131.536 146.214 126.379C153.012 121.222 159.466 114.4 159.968 106.074C160.46 97.9505 155.157 90.5632 153.996 82.4997C153.117 76.3739 154.665 70.1674 154.665 63.981C154.665 57.7947 152.5 50.8716 146.768 48.1064C144.112 46.8248 140.775 46.6633 138.223 48.1367C135.001 49.9936 133.704 53.8992 133.527 57.5121C133.234 63.6177 135.388 69.5518 136.497 75.5666C138.924 88.6255 136.34 102.492 129.353 113.926C124.636 121.646 117.921 128.206 110.056 132.969C106.489 135.119 102.891 136.865 98.6865 137.4C95.6846 137.783 92.9861 137.814 90.4026 139.56C85.0788 143.142 85.9051 147.784 91.1557 150.974Z" fill="#FFB6C1"/>
<path d="M124.594 98.3946C121.823 108.396 115.348 117.388 106.615 123.402C103.435 125.592 99.8161 127.439 95.9043 127.631C91.4487 127.853 87.2126 125.915 83.2799 123.887C72.8728 118.528 62.7691 111.968 55.9601 102.674C54.935 101.281 53.9728 99.4442 54.8514 97.9607C55.845 96.2753 58.3657 96.3863 60.353 96.679C72.444 98.4854 85.1417 98.657 96.5528 94.378C104.084 91.5523 110.924 86.5467 115.338 79.9667C116.896 77.6456 119.386 66.7463 122.952 66.6454C126.885 66.5243 125.609 79.5126 125.891 82.1668C126.487 87.5962 126.059 93.1266 124.594 98.3946Z" fill="#FFB6C1"/>
<path d="M39.633 82.6613C37.8758 78.3924 33.0227 74.9409 28.4624 76.2529C24.3937 77.4236 22.2391 81.7025 21.2036 85.6788C17.6997 99.1212 21.9985 114.188 32.1127 124.018C42.2269 133.848 57.8218 138.086 71.7746 134.806C72.8833 134.544 74.0862 134.171 74.7033 133.232C75.9375 131.345 73.9293 129.054 72.0047 127.813C67.6536 125.007 62.7796 123.039 58.0833 120.809C53.3871 118.578 48.7431 115.995 45.2392 112.241C41.6517 108.396 39.4134 103.027 39.9259 97.8093C40.4384 92.6725 41.7144 87.7072 39.633 82.6613Z" fill="#FFB6C1"/>
<path d="M51.0547 36.2988C51.4627 34.5428 51.8392 32.5547 50.7828 31.0712C49.1302 28.7299 45.3439 29.396 42.8022 30.8189C36.5475 34.3511 32.4787 40.8806 31.0562 47.7431C30.3031 51.4166 30.2404 55.2818 31.3805 58.8543C33.0958 64.2434 41.5052 75.9905 44.3398 64.9801C46.7977 55.4836 48.8164 45.8559 51.0547 36.2988Z" fill="#FFB6C1"/>
<path d="M64.4949 50.7001C66.0534 46.8954 67.9465 43.0403 71.2203 40.4568C74.8706 37.5705 79.7446 36.6521 84.42 36.0163C88.3527 35.4814 92.3795 35.098 96.2704 35.875C103.801 37.3888 109.7 43.0201 116.917 45.6037C118.245 46.078 119.835 46.4211 121.017 45.6642C122.032 45.0183 122.419 43.7165 122.251 42.5559C122.084 41.3953 121.477 40.3458 120.839 39.3568C115.495 31.0612 106.521 24.2491 96.3854 24.0069C90.068 23.8555 83.9911 26.217 78.3326 28.9419C71.0425 32.4539 63.9511 36.7833 58.9515 42.9999C54.2239 48.8936 51.7659 56.3617 51.7764 63.7894C51.7764 66.2619 52.3726 75.93 55.8032 75.9098C58.9097 75.8997 59.2234 67.15 59.8824 64.7279C61.1689 59.9645 62.6227 55.2818 64.4949 50.7001Z" fill="#FFB6C1"/>
<path d="M76.7219 62.3563C76.4709 64.3948 76.4709 66.605 77.6632 68.3105C78.9602 70.1775 81.4286 71.0051 83.761 71.0353C88.6245 71.0959 93.3103 67.9876 95.172 63.648C95.7996 62.1847 96.1447 60.5498 95.8519 58.9856C95.5695 57.4213 94.5863 55.9277 93.1115 55.2213C92.5572 54.9589 91.846 54.6864 91.7832 54.091C91.6995 53.3038 92.8605 53.2635 93.6136 52.9304C96.1029 51.8203 98.0274 51.3763 99.9414 51.8203C101.855 52.2644 104.617 53.9295 105.694 55.524C107.211 57.7544 106.677 60.4388 105.694 62.9315C103.372 68.8151 96.6782 73.8106 91.3544 77.4437C87.4322 80.1282 83.5309 84.2356 78.8242 83.297C76.6278 82.8631 71.7956 80.3704 71.1471 79.5933C67.7897 75.5666 66.5974 69.7637 67.5701 64.6774C68.2185 61.2966 70.5719 57.0782 73.8979 55.4736C79.3158 52.88 77.0148 60.0452 76.7219 62.3563Z" fill="#FFB6C1"/>
<path d="M81.0312 58.8141C80.0794 59.7425 79.274 60.8627 79.0126 62.1444C78.7511 63.4261 79.1171 64.8793 80.1735 65.6968C80.707 66.1105 81.3764 66.3427 82.0563 66.494C83.9703 66.928 86.0204 66.7766 87.8299 66.0601C89.6393 65.3335 91.2083 64.0316 92.181 62.3866C92.4738 61.8921 92.7249 61.3371 92.683 60.7618C92.6412 60.1866 92.2228 59.6113 91.6371 59.5407C91.1873 59.4801 90.748 59.7223 90.4133 60.0251C90.0786 60.3279 89.7962 60.6811 89.4406 60.9435C88.8653 61.3673 88.0809 61.5086 87.3801 61.327C86.6793 61.1453 86.0831 60.6306 85.8007 59.9847C85.4242 59.1168 85.6438 58.0774 86.1982 57.3003C86.7525 56.5232 87.5998 55.9782 88.4783 55.5846C89.0954 55.3021 92.2333 54.4644 92.296 53.6974C94.2101 51.8506 88.4783 54.6562 87.7985 54.9085C86.9722 55.2112 86.1459 55.5544 85.351 55.9278C83.7611 56.6746 82.2654 57.603 81.0312 58.8141Z" fill="#FFB6C1"/>
</svg>
