<svg width="180" height="180" viewBox="0 0 180 180" fill="none" xmlns="http://www.w3.org/2000/svg">
<rect width="180" height="180" rx="90" fill="white"/>
<path d="M21.7067 74L10 106.681H17.8044L20.2433 100.648H30.4866L28.0478 93.6086H22.6822L29.0233 74H21.7067Z" fill="#FF00AF"/>
<path d="M30.4866 75.0056L27.0721 86.0669L33.901 106.681H41.2177L30.4866 75.0056Z" fill="#FF00AF"/>
<path d="M48.5344 74H41.2178L52.9244 106.681H60.7289L48.5344 74Z" fill="#FF00AF"/>
<path d="M65.6066 74L57.8022 94.9744L61.7044 105.218L71.9477 74H65.6066Z" fill="#FF00AF"/>
<path d="M81.2155 74H74.3866V106.681H81.7033L81.2155 74Z" fill="#FF00AF"/>
<path d="M95.361 74L84.1422 106.681H90.971L93.4099 100.34H103.165L100.727 93.9989H95.361L102.678 74H95.361Z" fill="#FF00AF"/>
<path d="M103.653 74.9756L99.751 85.7067L106.58 106.681H114.872L103.653 74.9756Z" fill="#FF00AF"/>
<path d="M116.335 74V106.681H122.677V74H116.335Z" fill="#FF00AF"/>
<path d="M124.14 75.9511V90.5844L131.944 106.681H138.285L124.14 75.9511Z" fill="#FF00AF"/>
<path d="M133.408 74V91.56L139.261 104.73V74H133.408Z" fill="#FF00AF"/>
<path d="M142.675 85.2189V90.5844H149.017V86.1944C149.017 83.4629 151.943 80.3411 155.358 80.3411V74C148.041 74 142.675 78.8778 142.675 85.2189Z" fill="#FF00AF"/>
<path d="M169.991 90.5844C169.503 79.3655 162.187 74 156.333 74V80.3411C162.187 80.3411 163.162 87.3326 163.162 90.5844C163.162 93.8363 161.406 100.34 156.333 100.34C151.26 100.34 149.017 94.9744 149.017 91.56H142.675C142.675 107.169 156.333 106.681 156.333 106.681C168.04 106.681 170.161 94.4866 169.991 90.5844Z" fill="#FF00AF"/>
</svg>
