<svg width="180" height="180" viewBox="0 0 180 180" fill="none" xmlns="http://www.w3.org/2000/svg">
<g clip-path="url(#clip0_2322_80417)">
<rect width="180" height="180" rx="90" fill="white"/>
<path d="M29.3024 34.1145C14.5 29.5 -0.00129716 63.4169 0 70.3937C0.00129733 77.3704 0 123.417 0 123.417C8.37212 108.068 25.1164 101.09 33.4885 109.462C43.256 119.23 30.6978 137.369 33.4885 142.951C36.2792 148.532 90.4189 145.743 100.465 145.743C110.512 145.743 117.21 127.603 118.605 123.417C120 119.231 123 109.462 120 101.091C117.001 92.7207 51.349 96.6263 44.6513 95.51C32.0931 93.417 18.1396 68.9983 29.3024 34.1145Z" fill="#20498E"/>
<path d="M64.5819 52.463C64.5819 58.0444 60.3958 73.3933 72.954 73.3933H117.605C135.745 73.3933 158.071 83.1597 158.071 109.673C158.071 136.185 153.023 146 160 146C165.692 146 174.5 123.5 179.001 109.673C183.502 95.845 179.001 53.0212 179.001 55.2537C179.001 58.0444 169.233 69.2062 158.071 69.2062C149.14 69.2062 142.257 70.1364 139.931 66.4155C139.931 66.4155 142.722 49.6712 138.536 42.6945C134.35 35.7177 104.21 37.1141 89.6982 37.1141C75.1866 37.1141 64.5819 46.8816 64.5819 52.463Z" fill="#42B0A1"/>
</g>
<defs>
<clipPath id="clip0_2322_80417">
<rect width="180" height="180" rx="90" fill="white"/>
</clipPath>
</defs>
</svg>
