<svg width="180" height="180" viewBox="0 0 180 180" fill="none" xmlns="http://www.w3.org/2000/svg">
<rect width="180" height="180" rx="90" fill="white"/>
<path d="M88.1214 27.0018C75.2502 26.6452 10 78.5382 10 89.5945C10 100.651 76.5015 153.614 88.1214 153.792C99.7413 153.97 170.537 99.0457 169.997 89.5945C169.456 80.1432 100.993 27.3585 88.1214 27.0018Z" fill="#0D345E"/>
<path d="M87.0029 39C80.5029 39 24.5029 84 24.0029 89.5C23.5029 95 84.0029 142 88.5029 141.5C93.0029 141 155.003 93.5 155.003 89.5C155.003 85.5 93.5029 39 87.0029 39Z" fill="#1869A2"/>
<g filter="url(#filter0_d_2322_80419)">
<path d="M27.5178 69.4079H21.0692V106.066H42.5644V100.315H27.5178V69.4079Z" fill="white"/>
<path d="M68.3586 69.4079H46.5052V106.066H68.3586V100.315H52.2372V89.1743H68.3586V82.7053H52.2372V75.5175H68.3586V69.4079Z" fill="white"/>
<path d="M81.9723 87.1977L67.463 62.2201H73.0159L85.5548 82.7053L93.6155 69.4079H100.064L88.9582 87.1977L103.826 112.535H97.0189L85.5548 91.3306L77.4941 106.066H70.8664L81.9723 87.1977Z" fill="white"/>
<path d="M108.841 69.4079H103.109V96.3621C103.348 99.5966 106.262 106.066 116.006 106.066C125.751 106.066 128.903 99.5966 129.262 96.3621V69.4079H123.53C123.53 69.4079 124.246 95.1042 123.53 96.3621C122.813 97.6199 121.738 100.315 116.006 100.315C110.274 100.315 109.916 97.9793 108.841 96.3621C107.767 94.7448 108.841 69.4079 108.841 69.4079Z" fill="white"/>
<path d="M147.891 69.4079C150.327 69.4079 155.952 70.4861 158.459 71.0252V78.0332C158.459 79.6505 152.011 73.5409 147.891 73.5409C143.771 73.5409 140.547 75.1581 140.547 79.6505C140.547 84.1429 156.668 86.1195 158.459 88.9946C160.43 91.3306 160.43 98.3387 158.459 100.315C158.28 100.854 155.056 105.886 150.22 106.066C145.383 106.245 134.456 105.527 134.456 102.831V96.9012C135.889 97.7996 143.771 101.532 146.995 101.034C151.653 100.315 153.086 97.7996 153.086 95.4636C153.086 93.1276 148.607 90.0728 143.054 89.354C135.768 88.4109 134.815 82.7053 134.456 82.3459C133.74 81.6271 133.561 76.9551 134.456 75.5175C135.71 72.1033 140.368 69.0485 147.891 69.4079Z" fill="white"/>
</g>
<path d="M32.1383 119.579V139.704H139.811V119.579H32.1383Z" fill="white"/>
<path fill-rule="evenodd" clip-rule="evenodd" d="M119.712 126.064C119.892 125.027 120.538 122.953 121.686 122.953C121.985 122.953 122.602 122.941 123.354 122.926C125.494 122.883 128.732 122.818 128.864 122.953C129.044 123.136 129.403 124.234 129.044 125.332L129.002 125.353C128.648 125.535 128.171 125.779 127.249 125.515C126.863 125.404 126.583 125.204 126.305 125.004C125.895 124.71 125.486 124.417 124.737 124.417C123.481 124.417 121.866 124.6 121.866 126.43C121.866 128.046 123.687 128.52 125.969 129.113L125.969 129.113C126.269 129.192 126.577 129.272 126.89 129.357C128.685 129.906 129.044 131.126 129.044 132.467C129.044 133.809 128.613 136.492 126.89 136.492H121.507C120.251 136.492 119.712 135.212 119.712 133.565C120.071 132.833 121.058 133.382 121.686 133.931C122.105 134.297 123.301 134.663 124.737 134.663C126.532 134.663 126.711 133.748 126.711 132.65C126.711 131.842 124.571 130.836 122.941 130.069L122.941 130.069C122.357 129.794 121.838 129.55 121.507 129.357C119.623 128.396 119.662 127.436 119.701 126.475C119.707 126.338 119.712 126.201 119.712 126.064ZM45.7769 136.492V122.953H54.0318V124.417H47.9303V127.71H54.0318V129.906H47.9303V134.663H54.0318V136.492H45.7769ZM56.1852 122.953H63.3634C64.3205 123.929 66.2347 126.247 66.2347 127.71V132.101C66.2347 133.565 64.7991 136.492 63.184 136.492H56.1852V122.953ZM68.0293 122.953V124.417H69.8238V134.663H68.0293V136.492H73.054V134.663H71.6184V124.417H73.054V122.953H68.0293ZM74.4896 122.953H84.898V124.417H80.5911V136.492H78.4377V124.417H74.4896V122.953ZM96.3831 127.71C96.2037 126.064 95.127 122.953 90.6406 122.953C86.4772 122.953 85.0775 126.795 84.898 127.71C84.5391 128.442 84.5391 131.369 84.898 132.284C85.0775 133.199 86.3337 136.492 90.6406 136.492C94.9475 136.492 96.2635 133.687 96.3831 132.284C96.5626 131.552 96.5626 128.259 96.3831 127.71ZM98.5366 136.492V122.953H105.356C106.253 122.953 107.15 124.417 107.15 126.064C107.15 129.906 104.279 129.906 104.279 129.906L109.304 136.492H106.253L102.664 131.004H100.331V136.492H98.5366ZM109.663 122.953V136.492H117.918V134.663H112.175V129.906H117.918V127.71H112.175V124.417H117.918V122.953H109.663ZM58.1592 134.297V124.783H61.7483C63.0045 124.783 64.4402 126.064 64.4402 129.906C64.4402 133.748 62.6456 134.297 61.7483 134.297H58.1592ZM90.8202 124.783C87.9489 124.783 87.1115 127.954 87.0516 129.54C86.932 131.369 87.5182 135.029 90.8202 135.029C94.1222 135.029 94.7084 131.369 94.5887 129.54C94.5289 127.954 93.6915 124.783 90.8202 124.783ZM100.69 128.625H104.459C104.698 128.503 105.176 127.966 105.176 126.795C105.176 125.624 104.578 124.6 104.279 124.234H100.69V128.625Z" fill="#003D78"/>
<defs>
<filter id="filter0_d_2322_80419" x="17.0692" y="62.2201" width="146.868" height="58.3145" filterUnits="userSpaceOnUse" color-interpolation-filters="sRGB">
<feFlood flood-opacity="0" result="BackgroundImageFix"/>
<feColorMatrix in="SourceAlpha" type="matrix" values="0 0 0 0 0 0 0 0 0 0 0 0 0 0 0 0 0 0 127 0" result="hardAlpha"/>
<feOffset dy="4"/>
<feGaussianBlur stdDeviation="2"/>
<feComposite in2="hardAlpha" operator="out"/>
<feColorMatrix type="matrix" values="0 0 0 0 0 0 0 0 0 0 0 0 0 0 0 0 0 0 0.25 0"/>
<feBlend mode="normal" in2="BackgroundImageFix" result="effect1_dropShadow_2322_80419"/>
<feBlend mode="normal" in="SourceGraphic" in2="effect1_dropShadow_2322_80419" result="shape"/>
</filter>
</defs>
</svg>
