<svg width="143" height="24" viewBox="0 0 143 24" fill="none" xmlns="http://www.w3.org/2000/svg">
<path d="M4.65169 4.31458H0V19.955H4.65169V12.7415C4.65169 9.37075 7.01124 9.30334 9.4382 9.43817V4.31458C6.90337 4.31458 5.14607 6.17974 4.65169 7.07862V4.31458Z" fill="#37AAD7"/>
<path fill-rule="evenodd" clip-rule="evenodd" d="M20.6293 14.7632H25.5507C25.0113 16.5833 23.2585 19.8864 18.5394 19.9539C12.4723 20.0405 10.7866 15.3025 10.7866 12.3364C10.7866 9.37038 12.0675 4.31458 18.5394 4.31458C25.0113 4.31458 26.5619 10.9208 25.8203 13.3476H15.3709C15.3709 14.561 16.3552 16.2463 18.1349 16.2463C19.9147 16.2463 20.4495 15.2576 20.6293 14.7632ZM15.4383 10.786H21.1686C21.2136 9.90966 20.3597 8.2244 18.472 8.2244C16.3147 8.22439 15.5057 9.84224 15.4383 10.786Z" fill="#37AAD7"/>
<path fill-rule="evenodd" clip-rule="evenodd" d="M28.719 4.31958H33.3962V6.73696C34.3819 5.25393 36.2021 4.25283 37.6179 4.31958C41.1235 4.18609 44.6291 6.72196 44.6291 12.2606C44.6291 16.9584 41.6403 18.9558 40.1123 19.4674C38.2246 20.0994 35.0965 20.0947 33.3707 17.5323V24H28.719V4.31958ZM36.6741 8.45696C37.8201 8.52369 39.91 9.12426 39.91 12.1938C39.91 15.0766 37.8201 15.7973 36.6741 15.864C35.5505 15.8195 33.3033 15.0232 33.3033 12.1938C33.3033 9.36449 35.2583 8.45696 36.6741 8.45696Z" fill="#37AAD7"/>
<path fill-rule="evenodd" clip-rule="evenodd" d="M57.3708 4.32167H62.0225V19.955H57.3708V17.8661C56.7641 18.5849 55.4157 19.6855 52.9214 19.955C50.3596 19.955 46.382 18.6074 45.9775 12.4079C46.0449 5.93892 50.4944 4.18689 52.9214 4.32167C55.618 4.32167 56.8315 5.87156 57.3708 6.74757V4.32167ZM54.3371 8.49956C55.3483 8.54449 57.236 9.36209 57.236 12.2731C57.236 15.1842 55.3483 15.9119 54.3371 15.9119C52.8539 15.9793 50.8989 15.0359 50.8989 12.2731C50.8989 9.25428 52.9214 8.49956 54.3371 8.49956Z" fill="#37AAD7"/>
<path d="M70.7191 4.31458H66.0674V19.955H70.7191V12.7415C70.7191 9.37075 73.0786 9.30334 75.5056 9.43817V4.31458C72.9708 4.31458 71.2134 6.17974 70.7191 7.07862V4.31458Z" fill="#37AAD7"/>
<path d="M84.7415 0H80.0224V4.21941H78.2021V8.28043H80.0224V14.9767C80.0224 18.8543 83.1909 19.9766 84.7415 19.9547H87.7752V15.9592H86.1572C84.8628 15.9592 84.6741 15.2169 84.7415 14.8457V8.28043H87.7752V4.21941H84.7415V0Z" fill="#37AAD7"/>
<path fill-rule="evenodd" clip-rule="evenodd" d="M100.315 14.7632H105.236C104.697 16.5833 102.944 19.8864 98.2247 19.9539C92.1575 20.0405 90.4719 15.3025 90.4719 12.3364C90.4719 9.37038 91.7528 4.31458 98.2247 4.31458C104.697 4.31458 106.247 10.9208 105.506 13.3476H95.0562C95.0562 14.561 96.0405 16.2463 97.8203 16.2463C99.6 16.2463 100.135 15.2576 100.315 14.7632ZM95.1236 10.786H100.854C100.899 9.90966 100.045 8.2244 98.1573 8.2244C96 8.22439 95.191 9.84224 95.1236 10.786Z" fill="#37AAD7"/>
<path fill-rule="evenodd" clip-rule="evenodd" d="M119.685 1.57015C118.875 0.564799 117.777 0 116.632 0C115.487 0 114.389 0.564799 113.579 1.57015C112.77 2.5755 112.315 3.93904 112.315 5.36082C112.315 6.7826 112.77 8.14614 113.579 9.15149L116.261 12.4873C116.308 12.5465 116.364 12.5935 116.426 12.6256C116.488 12.6576 116.555 12.6742 116.622 12.6742C116.689 12.6742 116.755 12.6576 116.817 12.6256C116.879 12.5935 116.936 12.5465 116.983 12.4873L119.685 9.1199C120.491 8.11873 120.944 6.76087 120.944 5.34502C120.944 3.92917 120.491 2.57131 119.685 1.57015ZM116.629 8.02694C117.868 8.02694 118.873 6.79748 118.873 5.28087C118.873 3.76426 117.868 2.5348 116.629 2.5348C115.39 2.5348 114.386 3.76426 114.386 5.28087C114.386 6.79748 115.39 8.02694 116.629 8.02694Z" fill="#37AAD7"/>
<path d="M107.056 19.9551H111.978C111.978 19.9551 114.809 14.3596 115.348 13.4157C113.461 11.3259 112.584 10.3146 111.438 8.22473C111.034 9.3708 107.056 19.9551 107.056 19.9551Z" fill="#37AAD7"/>
<path d="M126.27 19.9551H121.348C121.348 19.9551 118.517 14.3596 117.977 13.4157C119.865 11.3259 120.741 10.3146 121.888 8.22473C122.292 9.3708 126.27 19.9551 126.27 19.9551Z" fill="#37AAD7"/>
<path fill-rule="evenodd" clip-rule="evenodd" d="M127.551 19.9551V0H135.303C138.607 0 142.315 1.85595 142.315 6.20978C142.315 10.4302 139.591 11.5167 138.318 12.0242L138.202 12.0707L142.517 19.9551H137.191L133.281 12.4196H132.27V19.9551H127.551ZM132.202 8.93093V4.25615H135.371C136.067 4.34918 137.461 4.93992 137.461 6.55866C137.461 8.58207 136.045 8.93093 135.371 8.93093H132.202Z" fill="#37AAD7"/>
</svg>
