<svg width="180" height="180" viewBox="0 0 180 180" fill="none" xmlns="http://www.w3.org/2000/svg">
<rect width="180" height="180" rx="90" fill="white"/>
<path fill-rule="evenodd" clip-rule="evenodd" d="M22 71C15.3726 71 10 76.3726 10 83V96.3201C10 102.948 15.3726 108.32 22 108.32H94.9628V71H22ZM13.3746 94.4305C13.7716 95.8201 15.1215 98.639 17.3448 98.7978C19.0424 98.919 22.3139 98.8551 24.2079 98.8181H24.208H24.208H24.208H24.2081H24.2081H24.2082H24.2082L24.2088 98.8181C24.795 98.8066 25.2491 98.7978 25.4837 98.7978C26.4761 98.7978 28.4615 97.6067 28.4615 97.6067L30.2481 98.7978L31.8362 96.6141L30.2481 95.2246V84.902C30.2481 83.7053 28.263 79.7407 25.8809 79.7407H17.3448C16.1538 79.7407 13.3749 82.3158 13.3746 84.902C13.3746 85.4456 13.3641 86.2492 13.3519 87.1765L13.3519 87.1765C13.321 89.5444 13.2795 92.7187 13.3746 94.4305ZM32.8286 79.7407H36.7988V94.629C37.0635 95.1584 38.2678 96.2171 40.9675 96.2171C43.6673 96.2171 44.6069 95.1584 44.7393 94.629L44.9378 79.7407H48.7095V95.4169C48.7095 96.608 46.3275 98.9963 44.1439 98.9963C43.4244 98.9963 42.597 98.9969 41.7614 98.9976L41.7574 98.9976H41.7562C40.0574 98.999 38.3251 99.0004 37.3945 98.9963C36.0052 98.9901 32.8286 97.4876 32.8286 96.2171V79.7407ZM55.4589 79.7407H51.4886V98.9963H55.4589V79.7407ZM58.238 79.7407H71.3398C72.2661 80.3362 73.5234 81.3226 73.7219 85.299C73.9308 89.4837 72.2515 90.4966 71.5134 90.9418L71.5132 90.9419C71.4472 90.9817 71.3887 91.017 71.3398 91.0496C71.0523 91.2412 71.5506 91.4818 72.1433 91.7681C72.779 92.0752 73.5234 92.4347 73.5234 92.8424V98.9963H69.7517V94.0335C69.487 93.6365 68.7988 92.8424 68.1636 92.8424H62.2082V98.9963H58.238V79.7407ZM80.8683 79.7407C78.0893 79.7407 75.9055 82.3151 75.9055 84.505V95.6216C75.9055 97.5273 78.0895 98.7978 81.067 98.7978H87.0221C89.603 98.7978 92.1836 96.4032 92.1836 95.2184C92.1836 94.7184 92.2189 93.1287 92.2598 91.2909L92.2598 91.2896L92.2598 91.2873C92.3157 88.7704 92.3819 85.7895 92.3819 84.505C92.3819 82.2816 90 79.7407 87.8162 79.7407H80.8683ZM22.5062 90.2618L21.1165 92.0428C21.1165 92.0428 25.0867 94.629 25.0867 95.2246C25.0867 95.8201 17.3449 95.8145 17.3449 94.822V84.4994C17.3449 83.5124 20.1638 83.5124 21.9107 83.5124C23.6576 83.5124 26.2779 83.7053 26.2779 84.6979V92.6439L22.5062 90.2618ZM62.2081 89.4677V83.5124H68.9575C70.1488 83.5124 70.3473 89.4677 68.9575 89.4677H62.2081ZM79.4789 94.0335V84.902C79.4789 83.7172 80.8685 83.5124 80.8685 83.5124H87.0223C87.4988 83.5124 88.4119 83.9157 88.4119 84.902V94.0335C88.4119 95.2245 87.8164 95.6216 87.0223 95.6216H80.8685H80.8616C80.2667 95.6216 79.4789 95.6216 79.4789 94.0335Z" fill="#737067"/>
<path fill-rule="evenodd" clip-rule="evenodd" d="M148.471 71H96.9479V108.32H148.471C155.099 108.32 160.471 102.948 160.471 96.3201V83C160.471 76.3726 155.099 71 148.471 71ZM101.315 98.7978V79.7407H107.469L112.035 93.6365L116.799 79.7407H122.953V98.7978H118.983L119.38 84.505L114.02 98.7978H110.248L104.491 83.9095L104.888 98.7978H101.315ZM126.129 79.7407H138.834V83.1154H129.305V87.8797H137.841V91.0559H129.305V96.0187H138.834V98.7978H126.129V79.7407ZM153.524 79.7407H141.216V98.7978H153.524C154.516 98.7978 156.303 97.4082 156.898 96.0187C157.494 94.6291 157.295 85.8946 156.898 83.9095C156.581 82.3214 154.516 80.4686 153.524 79.7407ZM144.591 96.0186V83.1154H151.538C152.73 83.1154 153.524 84.3002 153.524 85.696V93.2395C153.524 94.9864 151.803 95.8201 150.943 96.0186H144.591Z" fill="#9D1C38"/>
<circle cx="165.633" cy="75.7643" r="3.36725" stroke="#9D1C38" stroke-width="2"/>
<path fill-rule="evenodd" clip-rule="evenodd" d="M164.044 78.1464C164.044 78.1464 163.846 73.7791 164.044 73.5806C164.243 73.3821 167.221 73.3821 167.419 73.5806C167.618 73.7792 168.015 75.5658 167.419 75.9628C167.578 76.7569 167.75 77.7494 167.816 78.1464H166.824L166.625 76.5583H164.838V78.1464H164.044ZM164.839 75.5658V74.3747H166.427C166.824 74.3747 166.824 75.5658 166.427 75.5658H164.839Z" fill="#9D1C38"/>
</svg>
