<svg width="180" height="180" viewBox="0 0 180 180" fill="none" xmlns="http://www.w3.org/2000/svg">
<rect width="180" height="180" rx="90" fill="white"/>
<path fill-rule="evenodd" clip-rule="evenodd" d="M31.9505 65.463C31.9505 63.7465 30.4056 61 27.8308 61C25.256 61 23.5395 63.4032 23.5395 65.463C23.5395 67.5228 25.256 70.2693 27.8308 70.2693C30.4056 70.2693 31.9505 67.1795 31.9505 65.463ZM23.5395 75.0756C18.5615 72.8441 13.2404 86.9769 10.1506 96.0173C10.1506 96.6206 10.1045 97.1191 10.0634 97.5646C9.94043 98.8939 9.86116 99.7513 11.1804 101.51C12.8035 103.674 16.4516 104.666 19.1853 105.409C19.9208 105.609 20.5901 105.791 21.136 105.973C22.8078 106.531 21.7659 110.367 20.8553 113.72C20.644 114.498 20.4397 115.25 20.2781 115.929C19.5018 119.191 25.256 120.392 27.3156 118.504C28.7044 117.231 30.2704 113.69 31.6681 110.53L31.6681 110.53L31.6681 110.53C32.4685 108.72 33.2137 107.036 33.8387 105.973C34.9492 104.085 41.0174 104.209 47.7201 104.346H47.7201C51.3775 104.421 55.2239 104.499 58.5568 104.257C67.0198 103.641 71.2068 90.8877 72.4781 87.0156C72.625 86.5681 72.7329 86.2393 72.8041 86.0614C73.4907 84.3449 76.4088 85.3748 77.9537 86.9197C79.0988 88.0648 77.0373 93.2651 75.4742 97.208C74.9285 98.5846 74.4435 99.808 74.177 100.652C73.3531 103.261 75.8941 105.973 77.9537 105.973H89.6261C90.2067 105.973 90.3864 105.572 90.5721 105.158C90.7707 104.715 90.9761 104.257 91.6857 104.257C92.3723 104.257 92.5868 104.686 92.8014 105.115C93.0161 105.544 93.2307 105.973 93.9175 105.973H111.426C114.516 105.973 122.069 82.1134 122.069 82.1134C124.128 81.0835 127.218 81.0835 128.591 82.1134C129.119 82.5093 127.605 86.0538 125.997 89.8167L125.997 89.8169C124.677 92.9064 123.294 96.1433 122.927 97.9055C122.069 102.025 125.33 105.973 127.905 105.973H139.577C140.226 105.973 140.645 105.705 141.087 105.423C141.581 105.106 142.104 104.772 143.01 104.772C143.916 104.772 144.105 105.107 144.283 105.423C144.443 105.705 144.594 105.973 145.242 105.973C145.442 105.973 145.825 106.003 146.347 106.042C149.4 106.275 157.197 106.871 160.862 104.085C164.295 102.025 169.479 93.6485 169.616 92.4126C169.645 92.1528 169.708 91.859 169.775 91.5475C170.104 90.007 170.526 88.0347 167.385 87.6063C164.364 87.1943 162.35 90.6389 160.862 93.7859C158.915 97.9055 153.481 98.3175 150.735 97.9055C147.988 97.4936 152.394 87.0341 155.884 82.1134H164.639C166.012 82.1134 165.668 75.5906 164.639 75.5906C164.356 75.5906 163.918 75.6294 163.402 75.6751C162.041 75.7957 160.142 75.9641 159.146 75.5906C158.923 74.9226 159.782 71.9085 160.742 68.5375C161.262 66.7109 161.812 64.7796 162.236 63.0598C162.236 61.6866 155.541 61.6866 154.511 62.3732C153.481 63.0598 149.533 76.1055 149.533 76.1055H141.637C140.779 76.1055 140.607 81.4268 141.637 81.4268C141.78 81.4268 141.953 81.4142 142.145 81.4003C143.333 81.3138 145.242 81.1749 145.242 83.6583C145.242 87.263 138.719 97.9055 133.741 97.9055C130.92 97.9055 132.895 92.834 134.886 87.7205C136.409 83.8106 137.941 79.8761 137.346 78.1654C134.942 75.5906 121.038 74.7323 114.001 76.1055C111.769 84.1732 104.903 98.9355 99.7534 97.9055C99.1896 95.2978 101.154 91.4281 103.114 87.5656C105.929 82.021 108.736 76.4914 104.045 74.7323C100.331 74.0249 97.0268 80.196 93.7339 86.3465C90.6347 92.1352 87.5453 97.9055 84.1332 97.9055C82.4861 97.9055 83.8931 94.9883 85.556 91.5406C86.6877 89.1941 87.938 86.602 88.4246 84.5166C89.1865 81.2509 85.2544 80.4013 81.9689 79.6915C80.0735 79.282 78.3933 78.9189 77.9537 78.1654C77.7855 77.8771 77.6106 77.5417 77.421 77.1781L77.4209 77.1779C76.2556 74.9435 74.5341 71.6425 70.4006 71.6425C66.611 71.6425 66.343 74.7372 65.8943 79.9169C65.7739 81.3065 65.6405 82.8463 65.4227 84.5166C64.3928 89.1512 58.3849 96.5895 53.7502 96.5323C55.9817 93.3853 59.0712 84.5166 57.6983 79.3669C55.7064 71.8959 37.9581 73.3591 36.5852 75.5906C34.8159 76.9515 33.2826 80.8416 31.5593 85.2137C29.8049 89.6645 27.8536 94.615 25.256 97.9055C23.5395 100.652 19.8661 99.8281 20.2781 96.5323C20.425 95.3568 21.3152 93.3571 22.3524 91.0274C24.9503 85.1919 28.4701 77.2859 23.5395 75.0756ZM106.791 61C109.195 61 111.426 62.3732 111.426 65.463C111.426 68.5528 109.023 70.2693 106.791 70.2693C104.56 70.2693 102.672 67.6945 102.672 65.463C102.672 63.2315 104.388 61 106.791 61ZM39.8464 97.0473C42.4212 97.9055 45.511 93.0992 46.1976 91.3827C46.298 91.1318 46.4533 90.7893 46.6368 90.3846C47.7092 88.0201 49.7442 83.5328 47.3992 82.8C44.6527 81.9417 41.9063 87.9496 41.3913 89.1512C41.3091 89.343 41.1481 89.653 40.9461 90.042C39.8828 92.0895 37.6827 96.326 39.8464 97.0473Z" fill="black"/>
</svg>
