<svg width="180" height="180" viewBox="0 0 180 180" fill="none" xmlns="http://www.w3.org/2000/svg">
<rect width="180" height="180" rx="90" fill="white"/>
<path d="M170 131.004H10L45.6364 126.095V116.095H54.1818V108.277H63.8182V116.095H70.1818V74.6406H81.2727V102.095H86.3636V116.095H95.0909V84.4588H106.545V106.641H118V91.9134H128.727V116.095H138V126.095L170 131.004Z" fill="#531919"/>
<path d="M91.4545 60.4588C29.2727 60.4588 24.5455 124.641 25.4545 124.641C26.3636 124.641 27.2727 124.277 27.2727 124.277C28.1818 105.004 43.0909 65.9134 91.4545 67.3679C130.182 68.5326 144.364 104.459 144.364 124.277C148.364 126.095 152.909 126.095 155.636 124.277C155.636 103.004 135.636 62.6406 91.4545 60.4588Z" fill="#531919"/>
<path d="M95.0909 53.9134C95.0909 53.9134 95.0909 49.153 90.1818 49.0043C85.2727 48.8555 85.2727 52.6406 85.2727 53.9134C85.2727 55.1861 85.2727 58.8224 90.1818 58.8224C95.0909 58.8224 95.0909 53.9134 95.0909 53.9134Z" fill="#531919"/>
<path d="M91.3645 60.4588C29.1826 60.4588 24.4554 124.641 25.3645 124.641C26.2735 124.641 27.1826 124.277 27.1826 124.277C28.0917 105.004 43.0008 65.9134 91.3645 67.3679C130.092 68.5326 144.274 104.459 144.274 124.277C148.274 126.095 152.819 126.095 155.546 124.277C155.546 103.004 135.546 62.6406 91.3645 60.4588Z" fill="black"/>
<path d="M95.0008 53.9134C95.0008 53.9134 95.0008 49.153 90.0917 49.0043C85.1826 48.8555 85.1826 52.6406 85.1826 53.9134C85.1826 55.1861 85.1826 58.8224 90.0917 58.8224C95.0008 58.8224 95.0008 53.9134 95.0008 53.9134Z" fill="black"/>
</svg>
