<svg width="180" height="180" viewBox="0 0 180 180" fill="none" xmlns="http://www.w3.org/2000/svg">
<rect width="180" height="180" rx="90" fill="white"/>
<ellipse cx="14.6451" cy="74.6451" rx="3.6129" ry="3.6129" fill="#EF2728"/>
<ellipse cx="23.9355" cy="74.6451" rx="3.6129" ry="3.6129" fill="#EF2728"/>
<ellipse cx="33.2258" cy="74.6451" rx="3.6129" ry="3.6129" fill="#EF2728"/>
<ellipse cx="42.5161" cy="74.6451" rx="3.6129" ry="3.6129" fill="#EF2728"/>
<ellipse cx="51.8065" cy="74.6451" rx="3.6129" ry="3.6129" fill="#EF2728"/>
<ellipse cx="61.0968" cy="74.6451" rx="3.6129" ry="3.6129" fill="#EF2728"/>
<ellipse cx="14.6451" cy="83.9355" rx="3.6129" ry="3.6129" fill="#EF2728"/>
<ellipse cx="23.9355" cy="83.9355" rx="3.6129" ry="3.6129" fill="#EF2728"/>
<ellipse cx="33.2258" cy="83.9355" rx="3.6129" ry="3.6129" fill="#EF2728"/>
<ellipse cx="42.5161" cy="83.9355" rx="3.6129" ry="3.6129" fill="#EF2728"/>
<ellipse cx="51.8065" cy="83.9355" rx="3.6129" ry="3.6129" fill="#EF2728"/>
<ellipse cx="61.0968" cy="83.9355" rx="3.6129" ry="3.6129" fill="#EF2728"/>
<ellipse cx="14.6451" cy="93.2258" rx="3.6129" ry="3.6129" fill="#EF2728"/>
<ellipse cx="23.9355" cy="93.2258" rx="3.6129" ry="3.6129" fill="#EF2728"/>
<ellipse cx="33.2258" cy="93.2258" rx="3.6129" ry="3.6129" fill="#EF2728"/>
<ellipse cx="42.5161" cy="93.2258" rx="3.6129" ry="3.6129" fill="#EF2728"/>
<ellipse cx="51.8065" cy="93.2258" rx="3.6129" ry="3.6129" fill="#EF2728"/>
<ellipse cx="61.0968" cy="93.2258" rx="3.6129" ry="3.6129" fill="#EF2728"/>
<ellipse cx="14.6451" cy="102.516" rx="3.6129" ry="3.6129" fill="#EF2728"/>
<ellipse cx="23.9355" cy="102.516" rx="3.6129" ry="3.6129" fill="#EF2728"/>
<ellipse cx="33.2258" cy="102.516" rx="3.6129" ry="3.6129" fill="#EF2728"/>
<ellipse cx="42.5161" cy="102.516" rx="3.6129" ry="3.6129" fill="#EF2728"/>
<ellipse cx="51.8065" cy="102.516" rx="3.6129" ry="3.6129" fill="#EF2728"/>
<ellipse cx="61.0968" cy="102.516" rx="3.6129" ry="3.6129" fill="#EF2728"/>
<path d="M71.8802 98.576C72.4274 98.576 72.9079 98.5106 73.3216 98.3797C73.742 98.2488 74.0923 98.0656 74.3726 97.83C74.6528 97.5879 74.863 97.3033 75.0032 96.9761C75.1433 96.6424 75.2134 96.2759 75.2134 95.8768C75.2134 95.0654 74.9398 94.4535 74.3926 94.0413C73.8521 93.629 73.038 93.4229 71.9503 93.4229H69.9384V98.576H71.8802ZM78.5865 105.879H76.6847C76.3044 105.879 76.0275 105.731 75.854 105.437L72.3006 100.549C72.1872 100.385 72.0637 100.271 71.9303 100.205C71.7968 100.133 71.5966 100.097 71.3297 100.097H69.9384V105.879H67.8064V91.7837H71.9503C72.8778 91.7837 73.6752 91.8786 74.3425 92.0684C75.0165 92.2516 75.5704 92.5166 76.0041 92.8634C76.4445 93.2037 76.7682 93.616 76.975 94.1002C77.1885 94.5844 77.2953 95.1275 77.2953 95.7295C77.2953 96.2203 77.2186 96.6816 77.0651 97.1135C76.9116 97.5454 76.6847 97.9347 76.3845 98.2816C76.0908 98.6218 75.7305 98.9163 75.3034 99.165C74.8764 99.4136 74.3926 99.6034 73.8521 99.7342C74.119 99.8913 74.3492 100.111 74.5427 100.392L78.5865 105.879Z" fill="#040E13"/>
<path d="M83.7045 95.7492C84.4518 95.7492 85.1258 95.8702 85.7264 96.1123C86.3336 96.3479 86.8474 96.6915 87.2678 97.143C87.6949 97.5879 88.0219 98.1278 88.2487 98.7625C88.4756 99.3907 88.5891 100.097 88.5891 100.883C88.5891 101.668 88.4756 102.378 88.2487 103.013C88.0219 103.647 87.6949 104.187 87.2678 104.632C86.8474 105.077 86.3336 105.421 85.7264 105.663C85.1258 105.898 84.4518 106.016 83.7045 106.016C82.9504 106.016 82.2698 105.898 81.6625 105.663C81.062 105.421 80.5482 105.077 80.1211 104.632C79.694 104.187 79.3637 103.647 79.1302 103.013C78.9033 102.378 78.7898 101.668 78.7898 100.883C78.7898 100.097 78.9033 99.3907 79.1302 98.7625C79.3637 98.1278 79.694 97.5879 80.1211 97.143C80.5482 96.6915 81.062 96.3479 81.6625 96.1123C82.2698 95.8702 82.9504 95.7492 83.7045 95.7492ZM83.7045 104.524C84.6654 104.524 85.3827 104.207 85.8565 103.572C86.3303 102.937 86.5672 102.044 86.5672 100.892C86.5672 99.7408 86.3303 98.8476 85.8565 98.2129C85.3827 97.5716 84.6654 97.2509 83.7045 97.2509C82.7302 97.2509 82.0029 97.5716 81.5224 98.2129C81.0486 98.8476 80.8117 99.7408 80.8117 100.892C80.8117 102.044 81.0486 102.937 81.5224 103.572C82.0029 104.207 82.7302 104.524 83.7045 104.524Z" fill="#040E13"/>
<path d="M94.121 106.075C92.9732 106.049 92.1591 105.807 91.6787 105.349C91.1982 104.891 90.958 104.177 90.958 103.209V90.9592L92.8197 90.6451V102.914C92.8197 103.215 92.8464 103.464 92.8998 103.66C92.9532 103.857 93.04 104.014 93.1601 104.132C93.2802 104.249 93.4403 104.341 93.6405 104.406C93.8407 104.459 94.0876 104.505 94.3812 104.544L94.121 106.075Z" fill="#040E13"/>
<path d="M102.978 99.7833C102.978 99.4038 102.921 99.0537 102.808 98.7331C102.701 98.4124 102.541 98.1343 102.327 97.8988C102.114 97.6632 101.854 97.48 101.547 97.3491C101.24 97.2182 100.886 97.1528 100.486 97.1528C99.6649 97.1528 99.0177 97.3851 98.5439 97.8497C98.0768 98.3143 97.7798 98.9588 97.653 99.7833H102.978ZM104.59 104.455C104.349 104.73 104.072 104.969 103.759 105.172C103.445 105.368 103.112 105.529 102.758 105.653C102.404 105.777 102.037 105.869 101.657 105.928C101.283 105.987 100.913 106.016 100.546 106.016C99.8451 106.016 99.1945 105.902 98.5939 105.673C98 105.437 97.4829 105.097 97.0425 104.652C96.6087 104.2 96.2684 103.644 96.0215 102.983C95.7813 102.316 95.6612 101.55 95.6612 100.686C95.6612 99.9927 95.7713 99.3482 95.9915 98.7527C96.2117 98.1507 96.5253 97.6272 96.9324 97.1822C97.3461 96.7373 97.8499 96.3872 98.4438 96.132C99.0377 95.8768 99.705 95.7492 100.446 95.7492C101.066 95.7492 101.637 95.8506 102.157 96.0535C102.684 96.2498 103.138 96.5377 103.519 96.9172C103.899 97.2967 104.196 97.7646 104.409 98.3208C104.63 98.877 104.74 99.5118 104.74 100.225C104.74 100.519 104.706 100.719 104.64 100.824C104.573 100.922 104.449 100.971 104.269 100.971H97.603C97.623 101.566 97.7098 102.087 97.8632 102.532C98.0167 102.97 98.2269 103.337 98.4938 103.631C98.7674 103.925 99.0911 104.145 99.4647 104.289C99.8384 104.433 100.255 104.505 100.716 104.505C101.15 104.505 101.523 104.455 101.837 104.357C102.157 104.259 102.431 104.154 102.658 104.043C102.891 103.925 103.085 103.817 103.238 103.719C103.398 103.621 103.539 103.572 103.659 103.572C103.819 103.572 103.942 103.631 104.029 103.749L104.59 104.455Z" fill="#040E13"/>
<path d="M109.942 106.036C109.122 106.036 108.488 105.81 108.041 105.358C107.6 104.907 107.38 104.262 107.38 103.425V97.4571H106.199C106.085 97.4571 105.989 97.4243 105.909 97.3589C105.835 97.2869 105.799 97.1822 105.799 97.0448V96.2694L107.45 96.0436L107.89 93.0696C107.917 92.9583 107.967 92.8732 108.041 92.8144C108.121 92.7489 108.221 92.7162 108.341 92.7162H109.332V96.0633H112.215V97.4571H109.332V103.297C109.332 103.69 109.429 103.984 109.622 104.181C109.822 104.37 110.076 104.465 110.383 104.465C110.563 104.465 110.716 104.442 110.843 104.397C110.977 104.351 111.09 104.302 111.184 104.249C111.277 104.19 111.357 104.138 111.424 104.092C111.491 104.046 111.551 104.024 111.604 104.024C111.671 104.024 111.721 104.04 111.754 104.073C111.794 104.099 111.834 104.145 111.874 104.21L112.455 105.133C112.134 105.421 111.754 105.643 111.314 105.8C110.873 105.957 110.416 106.036 109.942 106.036Z" fill="#040E13"/>
<path d="M119.477 101.452C118.683 101.478 118.009 101.54 117.456 101.638C116.902 101.73 116.451 101.854 116.104 102.011C115.757 102.168 115.507 102.355 115.354 102.571C115.2 102.78 115.123 103.016 115.123 103.278C115.123 103.526 115.163 103.742 115.243 103.925C115.33 104.102 115.444 104.249 115.584 104.367C115.731 104.478 115.901 104.56 116.094 104.613C116.288 104.665 116.498 104.691 116.725 104.691C117.025 104.691 117.299 104.662 117.546 104.603C117.799 104.544 118.036 104.462 118.256 104.357C118.477 104.246 118.687 104.112 118.887 103.955C119.087 103.798 119.284 103.618 119.477 103.415V101.452ZM113.752 97.3C114.319 96.77 114.933 96.3741 115.594 96.1123C116.261 95.8506 116.992 95.7197 117.786 95.7197C118.366 95.7197 118.88 95.8146 119.327 96.0044C119.774 96.1876 120.151 96.4461 120.458 96.7798C120.765 97.1135 120.996 97.5127 121.149 97.9773C121.309 98.4419 121.389 98.9556 121.389 99.5183V105.879H120.518C120.325 105.879 120.178 105.849 120.078 105.79C119.978 105.725 119.898 105.607 119.838 105.437L119.628 104.563C119.367 104.799 119.11 105.008 118.857 105.192C118.603 105.368 118.336 105.522 118.056 105.653C117.783 105.777 117.489 105.872 117.175 105.938C116.862 106.003 116.515 106.036 116.134 106.036C115.734 106.036 115.357 105.983 115.003 105.879C114.656 105.767 114.353 105.601 114.092 105.378C113.832 105.156 113.625 104.878 113.472 104.544C113.325 104.21 113.252 103.821 113.252 103.376C113.252 102.983 113.358 102.607 113.572 102.247C113.792 101.881 114.146 101.553 114.633 101.265C115.127 100.978 115.767 100.742 116.555 100.559C117.349 100.376 118.323 100.271 119.477 100.245V99.5183C119.477 98.7658 119.314 98.203 118.987 97.83C118.66 97.4571 118.18 97.2706 117.546 97.2706C117.119 97.2706 116.758 97.3229 116.465 97.4276C116.178 97.5323 115.927 97.6501 115.714 97.781C115.507 97.9053 115.324 98.0198 115.163 98.1245C115.01 98.2292 114.85 98.2816 114.683 98.2816C114.549 98.2816 114.433 98.2456 114.333 98.1736C114.239 98.1016 114.162 98.0165 114.102 97.9184L113.752 97.3Z" fill="#040E13"/>
<path d="M139.505 102.856C139.625 102.856 139.729 102.901 139.816 102.993L140.656 103.896C140.069 104.577 139.352 105.103 138.504 105.476C137.664 105.849 136.649 106.036 135.462 106.036C134.421 106.036 133.476 105.859 132.629 105.506C131.788 105.152 131.067 104.658 130.467 104.024C129.873 103.389 129.413 102.63 129.086 101.746C128.759 100.863 128.595 99.8913 128.595 98.8312C128.595 97.7712 128.765 96.7994 129.106 95.916C129.453 95.0326 129.936 94.2736 130.557 93.6389C131.178 93.0041 131.918 92.5101 132.779 92.1567C133.647 91.8034 134.604 91.6267 135.652 91.6267C136.673 91.6267 137.58 91.7903 138.374 92.1175C139.168 92.4446 139.859 92.8798 140.446 93.4229L139.746 94.3946C139.699 94.4666 139.639 94.5255 139.565 94.5713C139.499 94.6171 139.409 94.64 139.295 94.64C139.168 94.64 139.018 94.5779 138.845 94.4535C138.678 94.3292 138.454 94.1918 138.174 94.0413C137.901 93.8842 137.56 93.7436 137.153 93.6192C136.746 93.4949 136.239 93.4327 135.632 93.4327C134.918 93.4327 134.264 93.5571 133.67 93.8057C133.076 94.0478 132.562 94.4012 132.128 94.8658C131.701 95.3238 131.368 95.8899 131.127 96.5639C130.894 97.2313 130.777 97.9871 130.777 98.8312C130.777 99.6884 130.901 100.451 131.147 101.118C131.394 101.786 131.735 102.352 132.168 102.816C132.602 103.281 133.113 103.634 133.7 103.876C134.287 104.118 134.921 104.24 135.602 104.24C136.015 104.24 136.386 104.217 136.713 104.171C137.046 104.118 137.35 104.043 137.624 103.945C137.904 103.847 138.167 103.723 138.414 103.572C138.661 103.415 138.905 103.229 139.145 103.013C139.198 102.967 139.255 102.931 139.315 102.905C139.375 102.872 139.439 102.856 139.505 102.856Z" fill="#040E13"/>
<path d="M146.537 95.7492C147.284 95.7492 147.958 95.8702 148.559 96.1123C149.166 96.3479 149.68 96.6915 150.1 97.143C150.527 97.5879 150.854 98.1278 151.081 98.7625C151.308 99.3907 151.422 100.097 151.422 100.883C151.422 101.668 151.308 102.378 151.081 103.013C150.854 103.647 150.527 104.187 150.1 104.632C149.68 105.077 149.166 105.421 148.559 105.663C147.958 105.898 147.284 106.016 146.537 106.016C145.783 106.016 145.102 105.898 144.495 105.663C143.894 105.421 143.381 105.077 142.954 104.632C142.527 104.187 142.196 103.647 141.963 103.013C141.736 102.378 141.622 101.668 141.622 100.883C141.622 100.097 141.736 99.3907 141.963 98.7625C142.196 98.1278 142.527 97.5879 142.954 97.143C143.381 96.6915 143.894 96.3479 144.495 96.1123C145.102 95.8702 145.783 95.7492 146.537 95.7492ZM146.537 104.524C147.498 104.524 148.215 104.207 148.689 103.572C149.163 102.937 149.4 102.044 149.4 100.892C149.4 99.7408 149.163 98.8476 148.689 98.2129C148.215 97.5716 147.498 97.2509 146.537 97.2509C145.563 97.2509 144.835 97.5716 144.355 98.2129C143.881 98.8476 143.644 99.7408 143.644 100.892C143.644 102.044 143.881 102.937 144.355 103.572C144.835 104.207 145.563 104.524 146.537 104.524Z" fill="#040E13"/>
<path d="M155.442 97.8202C155.769 97.1659 156.163 96.6522 156.623 96.2792C157.084 95.9062 157.637 95.7197 158.285 95.7197C158.505 95.7197 158.712 95.7459 158.905 95.7983C159.105 95.8441 159.279 95.916 159.426 96.0142L159.296 97.4571C159.249 97.6337 159.139 97.7221 158.965 97.7221C158.872 97.7221 158.732 97.7057 158.545 97.673C158.358 97.6337 158.158 97.6141 157.944 97.6141C157.631 97.6141 157.354 97.6599 157.114 97.7515C156.873 97.8366 156.657 97.9675 156.463 98.1441C156.276 98.3143 156.109 98.5269 155.963 98.7821C155.816 99.0308 155.679 99.3155 155.552 99.6361V105.879H153.6V95.9062H154.721C154.935 95.9062 155.078 95.9455 155.152 96.024C155.232 96.096 155.289 96.2269 155.322 96.4166L155.442 97.8202Z" fill="#040E13"/>
<path d="M162.883 103.425C163.204 103.837 163.547 104.125 163.914 104.289C164.288 104.452 164.705 104.534 165.165 104.534C166.06 104.534 166.75 104.22 167.237 103.592C167.731 102.957 167.978 102.034 167.978 100.824C167.978 100.189 167.921 99.6492 167.808 99.2042C167.701 98.7527 167.541 98.3863 167.327 98.1049C167.121 97.817 166.864 97.6076 166.557 97.4767C166.25 97.3393 165.903 97.2706 165.516 97.2706C164.949 97.2706 164.455 97.3949 164.034 97.6436C163.621 97.8922 163.237 98.2456 162.883 98.7036V103.425ZM162.783 97.3982C162.997 97.1495 163.224 96.9238 163.464 96.7209C163.711 96.5115 163.974 96.3348 164.255 96.1909C164.535 96.0404 164.832 95.9259 165.145 95.8473C165.466 95.7623 165.806 95.7197 166.166 95.7197C166.747 95.7197 167.271 95.831 167.738 96.0535C168.212 96.2759 168.615 96.6031 168.949 97.035C169.283 97.4669 169.54 98.0002 169.72 98.6349C169.907 99.2696 170 99.9993 170 100.824C170 101.563 169.897 102.25 169.69 102.885C169.489 103.513 169.199 104.06 168.819 104.524C168.445 104.989 167.985 105.355 167.438 105.624C166.897 105.885 166.286 106.016 165.606 106.016C164.999 106.016 164.478 105.918 164.044 105.722C163.611 105.525 163.224 105.251 162.883 104.897V109.226H160.931V95.9062H162.103C162.376 95.9062 162.546 96.0338 162.613 96.289L162.783 97.3982Z" fill="#040E13"/>
</svg>
